<svg width="54" height="54" viewBox="0 0 54 54" fill="none" xmlns="http://www.w3.org/2000/svg">
<path d="M46.1348 35.4231C44.7582 34.8343 43.5855 33.853 42.7634 32.6017C41.9412 31.3504 41.5058 29.8846 41.5118 28.3873C41.5296 27.0509 41.8875 25.7409 42.5518 24.5811C43.2161 23.4213 44.1649 22.4498 45.3087 21.7582C45.5674 21.5983 45.7911 21.3875 45.9661 21.1387C46.1411 20.8899 46.2639 20.6082 46.3269 20.3106C46.39 20.013 46.392 19.7057 46.333 19.4073C46.2739 19.1089 46.1549 18.8256 45.9832 18.5744C44.955 17.0792 43.6146 15.825 42.0545 14.8982C40.4944 13.9714 38.7518 13.3943 36.947 13.2065C38.6268 10.5406 39.3892 7.39859 39.1178 4.25923C39.0649 3.68918 38.7932 3.1618 38.3597 2.78777C37.9263 2.41373 37.3648 2.22212 36.7931 2.25313C32.9298 2.59747 29.3484 4.41964 26.7956 7.3398C25.1773 9.21491 24.0354 11.4528 23.4667 13.8635C22.2918 13.4659 21.0617 13.2553 19.8215 13.2395C17.5253 13.3045 15.2849 13.9618 13.3175 15.1475C11.3501 16.3332 9.72246 18.0071 8.59234 20.007C4.34502 27.381 6.9433 38.4311 11.5443 45.0822C13.39 47.7475 16.1597 51.7487 20.3378 51.7487C20.4202 51.7487 20.5037 51.7487 20.5872 51.7442C21.9871 51.6648 23.3576 51.3101 24.6203 50.7005C25.6288 50.1893 26.7416 49.9171 27.8722 49.9051C28.9355 49.918 29.9812 50.1783 30.9264 50.6653C32.3076 51.3188 33.8129 51.6687 35.3407 51.6914C39.6452 51.6101 42.1875 47.8968 44.0441 45.1831C45.5091 43.0277 46.6554 40.6721 47.4477 38.1892C47.6165 37.6475 47.5752 37.0621 47.3319 36.5495C47.0886 36.0369 46.6612 35.6348 46.1348 35.4231ZM30.2024 10.2776C31.3842 8.95569 32.8649 7.93562 34.5212 7.30249C34.1588 9.08502 33.3571 10.7489 32.1888 12.1431C31.3957 13.0945 30.4309 13.8884 29.3444 14.4832L29.3378 14.4855C29.2741 14.5119 29.2104 14.536 29.1466 14.5624C28.7269 14.7272 28.2083 14.9315 27.8085 15.0633C28.1946 13.2933 29.0176 11.6481 30.2024 10.2776ZM40.3307 42.6433C38.5224 45.2844 37.0997 47.1587 35.2584 47.1916C34.3683 47.1888 33.4931 46.963 32.7128 46.5346C31.2045 45.7997 29.5501 45.4137 27.8723 45.4051C26.1361 45.4139 24.4235 45.8079 22.8581 46.5587C22.097 46.9473 21.2667 47.1817 20.4147 47.2486H20.3477C18.5185 47.2486 16.5508 44.4076 15.2446 42.5201C11.9761 37.796 8.96148 28.3829 12.4925 22.2526C13.2329 20.926 14.3037 19.8133 15.6009 19.0226C16.8982 18.2318 18.3778 17.7898 19.8962 17.7395L19.972 17.7373C21.2528 17.8461 22.5037 18.1848 23.6645 18.737C23.96 18.8535 24.2512 18.9699 24.5401 19.0776C24.6137 19.1084 24.6895 19.1369 24.7664 19.1611C25.5671 19.4831 26.4176 19.6638 27.2801 19.695C28.5013 19.598 29.6941 19.2769 30.7991 18.748C32.3566 17.9921 34.0688 17.6091 35.8 17.6296C37.6518 17.702 39.4295 18.3762 40.8636 19.55C39.638 20.6792 38.6622 22.0523 37.9989 23.5811C37.3355 25.1099 36.9993 26.7605 37.0118 28.427V28.4292C36.9991 30.4466 37.4984 32.4343 38.4629 34.2062C39.4275 35.9781 40.8258 37.4764 42.527 38.5608C41.9346 39.9923 41.1987 41.3601 40.3307 42.6433Z" fill="#ECE6E2"/>
</svg>
