<svg width="32" height="32" viewBox="0 0 32 32" fill="none" xmlns="http://www.w3.org/2000/svg">
<path d="M25.92 17.3335C25.6267 17.3335 25.32 17.2401 25.0267 17.1735C24.4327 17.0426 23.8489 16.8688 23.28 16.6535C22.6615 16.4285 21.9815 16.4401 21.3711 16.6863C20.7606 16.9324 20.2628 17.3957 19.9733 17.9868L19.68 18.5868C18.3813 17.8644 17.188 16.9671 16.1333 15.9201C15.0864 14.8655 14.1891 13.6721 13.4667 12.3735L14.0267 12.0001C14.6178 11.7107 15.0811 11.2129 15.3272 10.6024C15.5734 9.99195 15.585 9.31203 15.36 8.69348C15.1483 8.12338 14.9746 7.53988 14.84 6.94682C14.7733 6.65348 14.72 6.34682 14.68 6.04015C14.5181 5.10098 14.0262 4.25047 13.2928 3.6418C12.5595 3.03313 11.6329 2.70629 10.68 2.72015H6.68001C6.10539 2.71475 5.53635 2.83323 5.01163 3.06752C4.4869 3.30181 4.01883 3.64641 3.63925 4.07786C3.25968 4.50931 2.97753 5.01747 2.812 5.56777C2.64647 6.11806 2.60145 6.69756 2.68001 7.26682C3.39033 12.8527 5.94138 18.0427 9.93021 22.017C13.919 25.9913 19.1183 28.5235 24.7067 29.2135H25.2133C26.1966 29.2149 27.1459 28.8542 27.88 28.2001C28.3018 27.8229 28.6388 27.3604 28.8686 26.8432C29.0985 26.3261 29.216 25.7661 29.2133 25.2001V21.2001C29.197 20.274 28.8598 19.3822 28.2591 18.677C27.6585 17.9719 26.8318 17.497 25.92 17.3335ZM26.5867 25.3335C26.5864 25.5228 26.5459 25.7099 26.4677 25.8823C26.3896 26.0547 26.2756 26.2085 26.1333 26.3335C25.9844 26.4621 25.8102 26.5582 25.6219 26.6156C25.4336 26.673 25.2354 26.6904 25.04 26.6668C20.0465 26.0266 15.4083 23.7421 11.857 20.1739C8.30561 16.6056 6.04323 11.9566 5.42668 6.96015C5.40546 6.76484 5.42406 6.56726 5.48135 6.37934C5.53864 6.19142 5.63344 6.01707 5.76001 5.86682C5.88496 5.72459 6.03876 5.6106 6.21118 5.53244C6.38361 5.45427 6.5707 5.41372 6.76001 5.41348H10.76C11.0701 5.40658 11.3728 5.50799 11.6162 5.70024C11.8596 5.8925 12.0283 6.16358 12.0933 6.46682C12.1467 6.83126 12.2133 7.19126 12.2933 7.54682C12.4474 8.24967 12.6524 8.94039 12.9067 9.61348L11.04 10.4801C10.8804 10.5534 10.7368 10.6574 10.6176 10.7863C10.4983 10.9151 10.4056 11.0663 10.3449 11.2311C10.2842 11.3958 10.2566 11.571 10.2638 11.7464C10.271 11.9219 10.3127 12.0942 10.3867 12.2535C12.3056 16.3638 15.6097 19.6679 19.72 21.5868C20.0446 21.7202 20.4087 21.7202 20.7333 21.5868C20.8996 21.5273 21.0524 21.4354 21.1829 21.3164C21.3134 21.1974 21.4189 21.0536 21.4933 20.8935L22.32 19.0268C23.0093 19.2733 23.7128 19.4781 24.4267 19.6401C24.7822 19.7201 25.1422 19.7868 25.5067 19.8401C25.8099 19.9052 26.081 20.0739 26.2733 20.3173C26.4655 20.5607 26.5669 20.8634 26.56 21.1735L26.5867 25.3335Z" fill="#ECE6E2"/>
</svg>
