<svg width="360" height="360" viewBox="0 0 360 360" fill="none" xmlns="http://www.w3.org/2000/svg">
<rect width="360" height="360" rx="180" fill="#C4CDCE"/>
<mask id="mask0_8_2232" style="mask-type:alpha" maskUnits="userSpaceOnUse" x="0" y="0" width="360" height="360">
<rect width="360" height="360" rx="180" fill="#C4CDCE"/>
</mask>
<g mask="url(#mask0_8_2232)">
<path d="M69 93.7591C69 77.3236 82.3236 64 98.7591 64H260.781C277.217 64 290.54 77.3236 290.54 93.7591V487.241C290.54 503.676 277.217 517 260.781 517H98.7591C82.3236 517 69 503.676 69 487.241V93.7591Z" fill="#3F3F3F"/>
<path d="M85.5328 97.0657C85.5328 86.1087 94.4153 80.5328 105.372 80.5328H254.168C265.125 80.5328 274.007 86.1087 274.007 97.0657V480.628C274.007 491.585 265.125 500.467 254.168 500.467H105.372C94.4153 500.467 85.5328 491.585 85.5328 480.628V97.0657Z" fill="#E6E6E7"/>
<path d="M123.558 77.2263H235.982V80.5328C235.982 87.8375 230.06 93.7591 222.755 93.7591H136.785C129.48 93.7591 123.558 87.8375 123.558 80.5328V77.2263Z" fill="#3F3F3F"/>
<path d="M123.558 153.277C123.558 158.756 119.117 163.197 113.638 163.197C108.16 163.197 103.719 158.756 103.719 153.277C103.719 147.799 108.16 143.357 113.638 143.357C119.117 143.357 123.558 147.799 123.558 153.277Z" fill="#F69E62"/>
<path d="M130.172 149.971C130.172 146.318 133.133 143.357 136.785 143.357H189.69C193.342 143.357 196.303 146.318 196.303 149.971V156.584C196.303 160.236 193.342 163.197 189.69 163.197H130.172V149.971Z" fill="#BFAE9F"/>
<path d="M103.719 176.424C103.719 172.771 106.68 169.811 110.332 169.811H202.916C206.568 169.811 209.529 172.771 209.529 176.424V202.876C209.529 206.529 206.568 209.489 202.916 209.489H110.332C106.68 209.489 103.719 206.529 103.719 202.876V176.424Z" fill="#BFAE9F"/>
<path d="M235.982 239.248C235.982 244.726 240.423 249.168 245.902 249.168C251.38 249.168 255.821 244.726 255.821 239.248C255.821 233.769 251.38 229.328 245.902 229.328C240.423 229.328 235.982 233.769 235.982 239.248Z" fill="#194F59"/>
<path d="M229.369 235.941C229.369 232.289 226.408 229.328 222.756 229.328H183.077C179.425 229.328 176.464 232.289 176.464 235.941V242.554C176.464 246.207 179.425 249.168 183.077 249.168H229.369V235.941Z" fill="#849B9D"/>
<path d="M255.821 262.394C255.821 258.742 252.86 255.781 249.208 255.781H156.624C152.972 255.781 150.011 258.742 150.011 262.394V288.847C150.011 292.499 152.972 295.46 156.624 295.46H249.208C252.86 295.46 255.821 292.499 255.821 288.847V262.394Z" fill="#849B9D"/>
<path d="M216.143 308.685C216.143 305.033 219.103 302.072 222.756 302.072H249.208C252.861 302.072 255.821 305.033 255.821 308.685V315.299C255.821 318.951 252.861 321.912 249.208 321.912H222.756C219.103 321.912 216.143 318.951 216.143 315.299V308.685Z" fill="#194F59"/>
<path d="M231.021 311.991C231.021 312.904 230.281 313.644 229.368 313.644C228.455 313.644 227.715 312.904 227.715 311.991C227.715 311.078 228.455 310.338 229.368 310.338C230.281 310.338 231.021 311.078 231.021 311.991Z" fill="white"/>
<path d="M237.635 311.991C237.635 312.904 236.894 313.644 235.981 313.644C235.068 313.644 234.328 312.904 234.328 311.991C234.328 311.078 235.068 310.338 235.981 310.338C236.894 310.338 237.635 311.078 237.635 311.991Z" fill="white"/>
<path d="M244.248 311.991C244.248 312.904 243.508 313.644 242.595 313.644C241.682 313.644 240.941 312.904 240.941 311.991C240.941 311.078 241.682 310.338 242.595 310.338C243.508 310.338 244.248 311.078 244.248 311.991Z" fill="white"/>
<path fill-rule="evenodd" clip-rule="evenodd" d="M142.571 153.278C142.571 152.821 142.941 152.451 143.398 152.451H183.077C183.533 152.451 183.903 152.821 183.903 153.278C183.903 153.734 183.533 154.104 183.077 154.104H143.398C142.941 154.104 142.571 153.734 142.571 153.278Z" fill="white"/>
<path fill-rule="evenodd" clip-rule="evenodd" d="M142.071 153.278C142.071 152.545 142.665 151.951 143.398 151.951H183.077C183.809 151.951 184.403 152.545 184.403 153.278C184.403 154.01 183.809 154.604 183.077 154.604H143.398C142.665 154.604 142.071 154.01 142.071 153.278ZM143.398 152.951C143.218 152.951 143.071 153.097 143.071 153.278C143.071 153.458 143.218 153.604 143.398 153.604H183.077C183.257 153.604 183.403 153.458 183.403 153.278C183.403 153.097 183.257 152.951 183.077 152.951H143.398Z" fill="white"/>
<path fill-rule="evenodd" clip-rule="evenodd" d="M116.119 183.038C116.119 182.581 116.489 182.211 116.946 182.211H196.303C196.76 182.211 197.13 182.581 197.13 183.038C197.13 183.494 196.76 183.864 196.303 183.864H116.946C116.489 183.864 116.119 183.494 116.119 183.038Z" fill="white"/>
<path fill-rule="evenodd" clip-rule="evenodd" d="M115.619 183.038C115.619 182.305 116.213 181.711 116.946 181.711H196.303C197.036 181.711 197.63 182.305 197.63 183.038C197.63 183.77 197.036 184.364 196.303 184.364H116.946C116.213 184.364 115.619 183.77 115.619 183.038ZM116.946 182.711C116.765 182.711 116.619 182.857 116.619 183.038C116.619 183.218 116.765 183.364 116.946 183.364H196.303C196.484 183.364 196.63 183.218 196.63 183.038C196.63 182.857 196.484 182.711 196.303 182.711H116.946Z" fill="white"/>
<path fill-rule="evenodd" clip-rule="evenodd" d="M162.41 269.006C162.41 268.55 162.78 268.18 163.237 268.18H242.594C243.051 268.18 243.421 268.55 243.421 269.006C243.421 269.463 243.051 269.833 242.594 269.833H163.237C162.78 269.833 162.41 269.463 162.41 269.006Z" fill="white"/>
<path fill-rule="evenodd" clip-rule="evenodd" d="M161.91 269.006C161.91 268.274 162.504 267.68 163.237 267.68H242.594C243.327 267.68 243.921 268.274 243.921 269.006C243.921 269.739 243.327 270.333 242.594 270.333H163.237C162.504 270.333 161.91 269.739 161.91 269.006ZM163.237 268.68C163.056 268.68 162.91 268.826 162.91 269.006C162.91 269.187 163.056 269.333 163.237 269.333H242.594C242.775 269.333 242.921 269.187 242.921 269.006C242.921 268.826 242.775 268.68 242.594 268.68H163.237Z" fill="white"/>
<path fill-rule="evenodd" clip-rule="evenodd" d="M116.119 196.264C116.119 195.808 116.489 195.438 116.946 195.438H156.625C157.081 195.438 157.451 195.808 157.451 196.264C157.451 196.721 157.081 197.091 156.625 197.091H116.946C116.489 197.091 116.119 196.721 116.119 196.264Z" fill="white"/>
<path fill-rule="evenodd" clip-rule="evenodd" d="M115.619 196.264C115.619 195.531 116.213 194.938 116.946 194.938H156.625C157.357 194.938 157.951 195.531 157.951 196.264C157.951 196.997 157.357 197.591 156.625 197.591H116.946C116.213 197.591 115.619 196.997 115.619 196.264ZM116.946 195.938C116.765 195.938 116.619 196.084 116.619 196.264C116.619 196.445 116.765 196.591 116.946 196.591H156.625C156.805 196.591 156.951 196.445 156.951 196.264C156.951 196.084 156.805 195.938 156.625 195.938H116.946Z" fill="white"/>
<path fill-rule="evenodd" clip-rule="evenodd" d="M188.863 239.249C188.863 238.792 189.233 238.422 189.69 238.422H216.142C216.599 238.422 216.969 238.792 216.969 239.249C216.969 239.705 216.599 240.075 216.142 240.075H189.69C189.233 240.075 188.863 239.705 188.863 239.249Z" fill="white"/>
<path fill-rule="evenodd" clip-rule="evenodd" d="M188.363 239.249C188.363 238.516 188.957 237.922 189.69 237.922H216.142C216.875 237.922 217.469 238.516 217.469 239.249C217.469 239.981 216.875 240.575 216.142 240.575H189.69C188.957 240.575 188.363 239.981 188.363 239.249ZM189.69 238.922C189.51 238.922 189.363 239.068 189.363 239.249C189.363 239.429 189.51 239.575 189.69 239.575H216.142C216.323 239.575 216.469 239.429 216.469 239.249C216.469 239.068 216.323 238.922 216.142 238.922H189.69Z" fill="white"/>
<path fill-rule="evenodd" clip-rule="evenodd" d="M162.41 282.233C162.41 281.776 162.78 281.406 163.237 281.406H202.916C203.372 281.406 203.742 281.776 203.742 282.233C203.742 282.689 203.372 283.06 202.916 283.06H163.237C162.78 283.06 162.41 282.689 162.41 282.233Z" fill="white"/>
<path fill-rule="evenodd" clip-rule="evenodd" d="M161.91 282.233C161.91 281.5 162.504 280.906 163.237 280.906H202.916C203.648 280.906 204.242 281.5 204.242 282.233C204.242 282.966 203.648 283.56 202.916 283.56H163.237C162.504 283.56 161.91 282.966 161.91 282.233ZM163.237 281.906C163.056 281.906 162.91 282.052 162.91 282.233C162.91 282.413 163.056 282.56 163.237 282.56H202.916C203.096 282.56 203.242 282.413 203.242 282.233C203.242 282.052 203.096 281.906 202.916 281.906H163.237Z" fill="white"/>
</g>
</svg>
