<svg width="32" height="32" viewBox="0 0 32 32" fill="none" xmlns="http://www.w3.org/2000/svg">
<path d="M26.1467 9.66658C26.0793 9.5018 25.9795 9.3522 25.8534 9.22658L19.68 3.05325C19.4302 2.80492 19.0923 2.66553 18.74 2.66553C18.3878 2.66553 18.0498 2.80492 17.8 3.05325C17.6751 3.1772 17.5759 3.32467 17.5082 3.48715C17.4405 3.64963 17.4056 3.8239 17.4056 3.99992C17.4056 4.17593 17.4405 4.35021 17.5082 4.51269C17.5759 4.67517 17.6751 4.82263 17.8 4.94658L21.6934 8.83992H11.0267C9.61221 8.83992 8.25565 9.40182 7.25546 10.402C6.25526 11.4022 5.69336 12.7588 5.69336 14.1733V27.9999C5.69336 28.3535 5.83384 28.6927 6.08388 28.9427C6.33393 29.1928 6.67307 29.3333 7.02669 29.3333C7.38031 29.3333 7.71945 29.1928 7.9695 28.9427C8.21955 28.6927 8.36003 28.3535 8.36003 27.9999V14.1733C8.36003 13.466 8.64098 12.7877 9.14107 12.2876C9.64117 11.7875 10.3194 11.5066 11.0267 11.5066H21.6934L17.8 15.3999C17.612 15.5864 17.4837 15.8247 17.4317 16.0843C17.3796 16.344 17.406 16.6133 17.5075 16.8579C17.6091 17.1025 17.7812 17.3113 18.0019 17.4577C18.2226 17.6041 18.4819 17.6815 18.7467 17.6799C19.0984 17.6749 19.4339 17.5311 19.68 17.2799L25.8534 11.1199C25.9763 10.9867 26.0755 10.8333 26.1467 10.6666C26.2764 10.3459 26.2764 9.98729 26.1467 9.66658Z" fill="#ECE6E2"/>
</svg>
