<svg width="98" height="48" viewBox="0 0 98 48" fill="none" xmlns="http://www.w3.org/2000/svg">
<path d="M45.1083 36.3224H44.4083V32.3805H39.7097V36.3224H39.0156V28.1016H39.7097V31.794H44.4083V28.1016H45.1083V36.3224Z" fill="#ECE6E2"/>
<path d="M49.3489 36.4354C48.8286 36.4354 48.3593 36.3077 47.9395 36.0511C47.5198 35.7958 47.1935 35.4387 46.9593 34.9811C46.7264 34.5235 46.6094 34.0116 46.6094 33.4429V33.2005C46.6094 32.6129 46.7229 32.0844 46.9511 31.6138C47.1793 31.1432 47.4961 30.7731 47.9029 30.5047C48.3096 30.2352 48.7506 30.1016 49.2247 30.1016C49.9661 30.1016 50.5549 30.3546 50.9888 30.8606C51.4239 31.3667 51.6415 32.0584 51.6415 32.9357V33.314H47.2821V33.4441C47.2821 34.1369 47.4808 34.7139 47.878 35.175C48.2753 35.6361 48.7754 35.8667 49.3773 35.8667C49.7391 35.8667 50.0583 35.8005 50.335 35.6692C50.6116 35.538 50.8635 35.3264 51.0881 35.0367L51.5126 35.3583C51.0136 36.076 50.2924 36.4354 49.3489 36.4354ZM49.2247 30.6762C48.7163 30.6762 48.2883 30.8618 47.9395 31.2354C47.5919 31.6079 47.3791 32.1092 47.3046 32.7382H50.9699V32.6649C50.951 32.0773 50.7831 31.5996 50.4674 31.2307C50.1505 30.8606 49.7355 30.6762 49.2247 30.6762Z" fill="#ECE6E2"/>
<path d="M53.6267 36.321H52.9492V27.6484H53.6267V36.321Z" fill="#ECE6E2"/>
<path d="M58.9391 34.7668C58.9391 34.4322 58.8043 34.1626 58.5347 33.9592C58.2651 33.7558 57.8596 33.5974 57.3181 33.4827C56.7754 33.368 56.3556 33.2356 56.0553 33.0878C55.7562 32.9388 55.5339 32.7579 55.3897 32.5428C55.2442 32.3288 55.1721 32.0686 55.1721 31.7636C55.1721 31.2824 55.3731 30.8839 55.7763 30.5694C56.1795 30.2549 56.695 30.0977 57.3228 30.0977C58.0038 30.0977 58.5501 30.2667 58.9627 30.6025C59.3754 30.9395 59.5811 31.3793 59.5811 31.9208H58.9036C58.9036 31.5638 58.7546 31.2658 58.4543 31.0282C58.1552 30.7905 57.778 30.6723 57.3228 30.6723C56.8782 30.6723 56.5212 30.7716 56.2528 30.969C55.9832 31.1665 55.8496 31.4231 55.8496 31.7399C55.8496 32.045 55.9619 32.2815 56.1854 32.4482C56.41 32.6161 56.8179 32.7698 57.4115 32.9081C58.0038 33.0476 58.4484 33.1966 58.744 33.3538C59.0396 33.5123 59.2595 33.7026 59.4014 33.9237C59.5444 34.146 59.6166 34.4144 59.6166 34.7313C59.6166 35.2468 59.4085 35.6594 58.9923 35.968C58.5761 36.2766 58.0334 36.4315 57.363 36.4315C56.6512 36.4315 56.0742 36.2589 55.632 35.9148C55.1898 35.5708 54.9688 35.1345 54.9688 34.6071H55.6462C55.6722 35.002 55.839 35.3095 56.1452 35.5306C56.4526 35.7505 56.8581 35.8616 57.3618 35.8616C57.8324 35.8616 58.2119 35.7576 58.5028 35.5507C58.7937 35.3449 58.9391 35.0824 58.9391 34.7668Z" fill="#ECE6E2"/>
<path d="M60.918 28.4462C60.918 28.3185 60.9593 28.2109 61.0421 28.1234C61.1249 28.0359 61.2384 27.9922 61.3814 27.9922C61.5245 27.9922 61.638 28.0359 61.7231 28.1234C61.8071 28.2109 61.8497 28.3185 61.8497 28.4462C61.8497 28.5727 61.8071 28.6803 61.7231 28.7654C61.638 28.8518 61.5245 28.8943 61.3814 28.8943C61.2384 28.8943 61.1249 28.8518 61.0421 28.7654C60.9593 28.6791 60.918 28.5727 60.918 28.4462ZM61.7137 36.3195H61.0362V30.2103H61.7137V36.3195Z" fill="#ECE6E2"/>
<path d="M64.0573 30.21L64.0797 31.2552C64.3091 30.8792 64.5952 30.5919 64.9381 30.3944C65.281 30.197 65.6593 30.0977 66.0732 30.0977C66.7282 30.0977 67.2153 30.2821 67.5357 30.651C67.8562 31.0199 68.017 31.5732 68.0217 32.311V36.3204H67.3501V32.3051C67.3466 31.76 67.2307 31.3533 67.0025 31.0861C66.7743 30.8189 66.4101 30.6853 65.91 30.6853C65.4926 30.6853 65.1214 30.8165 64.801 31.0778C64.4794 31.3403 64.2405 31.6926 64.0856 32.1372V36.3215H63.4141V30.2123H64.0573V30.21Z" fill="#ECE6E2"/>
<path d="M69.3957 33.2084C69.3957 32.2519 69.6074 31.494 70.0306 30.9359C70.4551 30.3767 71.0297 30.0977 71.7557 30.0977C72.5881 30.0977 73.2206 30.4287 73.6533 31.0908L73.6876 30.21H74.319V36.195C74.319 36.9813 74.0991 37.6044 73.6581 38.0643C73.2171 38.5243 72.6212 38.7536 71.868 38.7536C71.4424 38.7536 71.0368 38.659 70.6514 38.4687C70.2659 38.2783 69.9609 38.0253 69.7386 37.7096L70.1169 37.3029C70.5958 37.8905 71.1633 38.1837 71.8219 38.1837C72.3871 38.1837 72.8269 38.017 73.1438 37.6836C73.4594 37.3502 73.6238 36.8879 73.6344 36.2979V35.5294C73.2017 36.1312 72.5715 36.4327 71.7427 36.4327C71.0344 36.4327 70.4669 36.1501 70.0377 35.5861C69.6085 35.0221 69.3945 34.2595 69.3945 33.2995L69.3957 33.2084ZM70.0791 33.3267C70.0791 34.1058 70.2352 34.7206 70.5485 35.1699C70.8606 35.6192 71.3017 35.8451 71.8704 35.8451C72.7016 35.8451 73.2916 35.4726 73.638 34.7266V31.8865C73.4796 31.4952 73.2525 31.1972 72.9546 30.9915C72.6566 30.7858 72.2996 30.6841 71.8822 30.6841C71.3147 30.6841 70.8713 30.9076 70.5556 31.3533C70.2375 31.7991 70.0791 32.4576 70.0791 33.3267Z" fill="#ECE6E2"/>
<path d="M80.8932 33.3284C80.8932 34.2802 80.6828 35.0369 80.2607 35.595C79.8398 36.1543 79.2722 36.4333 78.5616 36.4333C77.7115 36.4333 77.0672 36.1176 76.6297 35.4851L76.6013 36.321H75.9688V27.6484H76.6403V31.0985C77.0695 30.4329 77.7056 30.0994 78.5486 30.0994C79.271 30.0994 79.8421 30.3749 80.2619 30.9271C80.6816 31.4781 80.892 32.2454 80.892 33.2279L80.8932 33.3284ZM80.2169 33.2102C80.2169 32.405 80.0609 31.7831 79.7475 31.3445C79.4354 30.9058 78.9944 30.6859 78.4257 30.6859C77.9929 30.6859 77.6264 30.7923 77.3249 31.0051C77.0234 31.2179 76.7952 31.5289 76.6415 31.9392V34.6941C76.9808 35.4626 77.5791 35.8457 78.4375 35.8457C78.9944 35.8457 79.4307 35.6257 79.7452 35.1847C80.0585 34.7461 80.2169 34.0875 80.2169 33.2102Z" fill="#ECE6E2"/>
<path d="M81.9727 33.1753C81.9727 32.5877 82.0862 32.0592 82.3144 31.5886C82.5426 31.118 82.8641 30.7515 83.2803 30.4902C83.6965 30.2289 84.1671 30.0977 84.6944 30.0977C85.5067 30.0977 86.1664 30.3826 86.6701 30.9525C87.175 31.5224 87.4268 32.2779 87.4268 33.2191V33.3609C87.4268 33.9521 87.3121 34.4842 87.0851 34.9559C86.8569 35.4289 86.5365 35.793 86.1227 36.0484C85.7089 36.305 85.2359 36.4327 84.7051 36.4327C83.8963 36.4327 83.2378 36.1477 82.7317 35.5779C82.2245 35.008 81.9727 34.2524 81.9727 33.3113V33.1753ZM82.6501 33.3621C82.6501 34.0916 82.8393 34.6923 83.2177 35.1605C83.596 35.6299 84.0926 35.864 84.7051 35.864C85.3152 35.864 85.8094 35.6299 86.1877 35.1605C86.5661 34.6923 86.7553 34.0739 86.7553 33.3054V33.1753C86.7553 32.7083 86.6678 32.2815 86.4951 31.8936C86.3213 31.5058 86.079 31.2055 85.7668 30.9927C85.4547 30.7799 85.0964 30.6735 84.6944 30.6735C84.0914 30.6735 83.6008 30.9099 83.2212 31.3817C82.8405 31.8546 82.6501 32.473 82.6501 33.2368V33.3621Z" fill="#ECE6E2"/>
<path d="M91.5852 30.7858C91.4421 30.7598 91.2896 30.7468 91.1276 30.7468C90.7055 30.7468 90.3484 30.8638 90.0576 31.1003C89.7655 31.3356 89.5574 31.6773 89.4333 32.1254V36.3204H88.7617V30.2112H89.4227L89.4333 31.1819C89.7915 30.4595 90.365 30.0977 91.156 30.0977C91.344 30.0977 91.4929 30.1225 91.6029 30.171L91.5852 30.7858Z" fill="#ECE6E2"/>
<path d="M92.1809 33.2084C92.1809 32.2519 92.3925 31.494 92.8158 30.9359C93.2403 30.3767 93.8149 30.0977 94.5408 30.0977C95.3732 30.0977 96.0058 30.4287 96.4385 31.0908L96.4728 30.21H97.1042V36.195C97.1042 36.9813 96.8843 37.6044 96.4432 38.0643C96.0022 38.5243 95.4063 38.7536 94.6532 38.7536C94.2275 38.7536 93.822 38.659 93.4365 38.4687C93.0511 38.2783 92.746 38.0253 92.5237 37.7096L92.9021 37.3029C93.381 37.8905 93.9485 38.1837 94.607 38.1837C95.1722 38.1837 95.612 38.017 95.9289 37.6836C96.2446 37.3502 96.409 36.8879 96.4196 36.2979V35.5294C95.9869 36.1312 95.3567 36.4327 94.5278 36.4327C93.8196 36.4327 93.2521 36.1501 92.8229 35.5861C92.3937 35.021 92.1797 34.2595 92.1797 33.2995L92.1809 33.2084ZM92.8643 33.3267C92.8643 34.1058 93.0203 34.7206 93.3337 35.1699C93.6458 35.6192 94.0868 35.8451 94.6555 35.8451C95.4867 35.8451 96.0767 35.4726 96.4231 34.7266V31.8865C96.2647 31.4952 96.0377 31.1972 95.7397 30.9915C95.4418 30.7858 95.0847 30.6841 94.6673 30.6841C94.0998 30.6841 93.6564 30.9076 93.3408 31.3533C93.0227 31.7991 92.8643 32.4576 92.8643 33.3267Z" fill="#ECE6E2"/>
<path d="M43.664 45.8633C43.664 45.4081 43.5032 45.0475 43.184 44.7815C42.8635 44.5167 42.2783 44.2636 41.4282 44.0248C40.5781 43.786 39.9561 43.5258 39.5648 43.2433C39.0079 42.8448 38.7289 42.321 38.7289 41.6743C38.7289 41.0453 38.9866 40.5345 39.5045 40.1408C40.0224 39.7471 40.6845 39.5508 41.4897 39.5508C42.0359 39.5508 42.5242 39.656 42.9558 39.8677C43.3861 40.0781 43.7208 40.3725 43.9584 40.7485C44.1961 41.1245 44.3143 41.5442 44.3143 42.0077H43.6143C43.6143 41.4449 43.4228 40.9932 43.0385 40.6515C42.6543 40.3098 42.1388 40.1384 41.4908 40.1384C40.8618 40.1384 40.3617 40.2791 39.9893 40.5593C39.6168 40.8407 39.43 41.2073 39.43 41.6589C39.43 42.0775 39.5979 42.4192 39.9325 42.6828C40.2671 42.9465 40.8039 43.1794 41.5417 43.3816C42.2795 43.5838 42.8387 43.7931 43.2183 44.0094C43.599 44.2258 43.8851 44.4847 44.0766 44.7862C44.2682 45.0877 44.3651 45.4436 44.3651 45.8527C44.3651 46.5006 44.1062 47.0197 43.5883 47.411C43.0705 47.8024 42.3882 47.9987 41.5417 47.9987C40.9623 47.9987 40.4303 47.8958 39.9467 47.6877C39.4631 47.4808 39.0954 47.1911 38.8447 46.8187C38.5941 46.4462 38.4688 46.0182 38.4688 45.537H39.164C39.164 46.1164 39.3803 46.5739 39.8131 46.9097C40.2458 47.2443 40.8216 47.4122 41.5405 47.4122C42.1801 47.4122 42.6945 47.2703 43.0823 46.9889C43.4701 46.7052 43.664 46.3304 43.664 45.8633Z" fill="#ECE6E2"/>
<path d="M47.325 46.478L47.4267 47.003L47.5627 46.4496L49.0311 41.7746H49.6069L51.0577 46.4106L51.2161 47.0538L51.3462 46.4603L52.5995 41.7734H53.2994L51.5212 47.8826H50.9454L49.3764 43.0374L49.3031 42.7039L49.2298 43.0433L47.688 47.8826H47.1122L45.3398 41.7734H46.0339L47.325 46.478Z" fill="#ECE6E2"/>
<path d="M56.677 47.9979C56.1568 47.9979 55.6874 47.8702 55.2676 47.6136C54.8479 47.3583 54.5216 47.0012 54.2875 46.5436C54.0546 46.086 53.9375 45.5741 53.9375 45.0054V44.763C53.9375 44.1754 54.051 43.6469 54.2792 43.1763C54.5074 42.7057 54.8243 42.3356 55.231 42.0672C55.6377 41.7977 56.0787 41.6641 56.5529 41.6641C57.2942 41.6641 57.883 41.9171 58.3169 42.4231C58.752 42.9292 58.9696 43.6208 58.9696 44.4982V44.8765H54.6103V45.0066C54.6103 45.6994 54.8089 46.2764 55.2062 46.7375C55.6034 47.1986 56.1036 47.4292 56.7054 47.4292C57.0672 47.4292 57.3864 47.363 57.6631 47.2317C57.9397 47.1005 58.1916 46.8889 58.4162 46.5992L58.8407 46.9208C58.3417 47.6385 57.6217 47.9979 56.677 47.9979ZM56.5529 42.2387C56.0444 42.2387 55.6164 42.4243 55.2676 42.7979C54.92 43.1704 54.7072 43.6717 54.6327 44.3007H58.298V44.2274C58.2791 43.6398 58.1112 43.1621 57.7955 42.7932C57.4786 42.4231 57.0648 42.2387 56.5529 42.2387Z" fill="#ECE6E2"/>
<path d="M59.9844 44.7739C59.9844 43.8256 60.196 43.0689 60.6193 42.5061C61.0438 41.9433 61.6184 41.6619 62.3443 41.6619C63.1696 41.6619 63.7974 41.9871 64.2302 42.6386V39.2109H64.9018V47.8835H64.2692L64.2408 47.07C63.8081 47.6872 63.1708 47.9958 62.3325 47.9958C61.629 47.9958 61.0603 47.7132 60.6299 47.1457C60.1996 46.5793 59.9844 45.8144 59.9844 44.8507V44.7739ZM60.6678 44.8933C60.6678 45.6725 60.8238 46.2873 61.1372 46.7366C61.4493 47.1859 61.8903 47.4117 62.459 47.4117C63.2902 47.4117 63.8814 47.044 64.2314 46.3109V43.4414C63.8814 42.6468 63.295 42.2496 62.4697 42.2496C61.9021 42.2496 61.4588 42.473 61.1431 42.9188C60.8262 43.3657 60.6678 44.0231 60.6678 44.8933Z" fill="#ECE6E2"/>
<path d="M68.9739 47.9979C68.4536 47.9979 67.9843 47.8702 67.5645 47.6136C67.1448 47.3583 66.8185 47.0012 66.5843 46.5436C66.3514 46.086 66.2344 45.5741 66.2344 45.0054V44.763C66.2344 44.1754 66.3479 43.6469 66.5761 43.1763C66.8043 42.7057 67.1211 42.3356 67.5279 42.0672C67.9346 41.7977 68.3756 41.6641 68.8497 41.6641C69.5911 41.6641 70.1799 41.9171 70.6138 42.4231C71.0489 42.9292 71.2665 43.6208 71.2665 44.4982V44.8765H66.9071V45.0066C66.9071 45.6994 67.1058 46.2764 67.503 46.7375C67.9003 47.1986 68.4004 47.4292 69.0023 47.4292C69.3641 47.4292 69.6833 47.363 69.96 47.2317C70.2366 47.1005 70.4885 46.8889 70.7131 46.5992L71.1376 46.9208C70.6398 47.6385 69.9186 47.9979 68.9739 47.9979ZM68.8497 42.2387C68.3413 42.2387 67.9133 42.4243 67.5645 42.7979C67.2169 43.1704 67.0041 43.6717 66.9296 44.3007H70.5949V44.2274C70.576 43.6398 70.4081 43.1621 70.0924 42.7932C69.7755 42.4231 69.3617 42.2387 68.8497 42.2387Z" fill="#ECE6E2"/>
<path d="M73.1717 41.7764L73.1942 42.8216C73.4236 42.4456 73.7097 42.1583 74.0526 41.9608C74.3954 41.7634 74.7738 41.6641 75.1876 41.6641C75.8426 41.6641 76.3298 41.8485 76.6502 42.2174C76.9706 42.5863 77.1314 43.1396 77.1361 43.8774V47.8868H76.4646V43.8715C76.461 43.3264 76.3451 42.9197 76.117 42.6513C75.8888 42.3841 75.5246 42.2505 75.0245 42.2505C74.6071 42.2505 74.2358 42.3817 73.9154 42.643C73.5938 42.9055 73.355 43.2579 73.2001 43.7024V47.8868H72.5273V41.7776L73.1717 41.7764Z" fill="#ECE6E2"/>
<path d="M51.5256 20.0574H37.964V17.3664L44.3641 10.5454C45.2426 9.58531 45.8929 8.74702 46.3138 8.0317C46.7347 7.31638 46.9452 6.63653 46.9452 5.99333C46.9452 5.11484 46.7229 4.42435 46.2795 3.92067C45.8361 3.41699 45.2012 3.16633 44.3771 3.16633C43.4892 3.16633 42.7892 3.47256 42.2772 4.08384C41.7653 4.69511 41.5099 5.49911 41.5099 6.49583H37.5703C37.5703 5.29101 37.8576 4.19025 38.4334 3.19353C39.0092 2.19681 39.8215 1.41527 40.8726 0.848927C41.9237 0.282582 43.1144 0 44.4469 0C46.4852 0 48.0684 0.489493 49.1964 1.4673C50.3243 2.4451 50.8883 3.82727 50.8883 5.61143C50.8883 6.58923 50.6353 7.58714 50.1269 8.60041C49.6196 9.61487 48.7494 10.7972 47.5174 12.1475L43.0198 16.8899H51.5268L51.5256 20.0574Z" fill="#ECE6E2"/>
<path d="M67.4955 20.0574H53.934V17.3664L60.334 10.5454C61.2125 9.58531 61.8628 8.74702 62.2837 8.0317C62.7046 7.31638 62.9151 6.63653 62.9151 5.99333C62.9151 5.11484 62.6928 4.42435 62.2494 3.92067C61.8061 3.41817 61.1711 3.16633 60.347 3.16633C59.4591 3.16633 58.7591 3.47256 58.2472 4.08384C57.7352 4.69511 57.4798 5.49911 57.4798 6.49583H53.5391C53.5391 5.29101 53.8264 4.19025 54.4022 3.19353C54.978 2.19681 55.7903 1.41527 56.8414 0.848927C57.8925 0.282582 59.0831 0 60.4156 0C62.454 0 64.0371 0.489493 65.1651 1.4673C66.2931 2.4451 66.857 3.82727 66.857 5.61143C66.857 6.58923 66.604 7.58714 66.0956 8.60041C65.5884 9.61487 64.7182 10.7972 63.4862 12.1475L58.9885 16.8899H67.4955V20.0574Z" fill="#ECE6E2"/>
<path d="M25.4524 0.273438V16.7684H4.07674V0.273438H0V20.0577H29.528V0.273438H25.4524Z" fill="#ECE6E2"/>
<path d="M0 47.8858H4.07674V31.3909H25.4524V47.8858H29.528V28.1016H0V47.8858Z" fill="#ECE6E2"/>
</svg>
