<svg width="42" height="40" viewBox="0 0 42 40" fill="none" xmlns="http://www.w3.org/2000/svg">
<path d="M26.0056 29.699L24.8795 28.6097C22.5668 26.3725 22.5668 22.7449 24.8795 20.5077L26.0056 19.4187C28.3182 17.1812 32.0678 17.1812 34.3805 19.4187L35.5066 20.5077C37.8192 22.7449 37.8192 26.3725 35.5066 28.6097L34.3805 29.699C32.0678 31.9363 28.3182 31.9363 26.0056 29.699Z" fill="#ECE6E2"/>
<path d="M41.1481 7.93231C41.1481 12.035 37.7057 15.361 33.4597 15.361H23.9175C19.6712 15.361 16.2289 18.687 16.2289 22.79V32.0686C16.2289 36.1716 12.7868 39.4976 8.54077 39.4976H8.5402C4.29415 39.4976 0.851807 36.1716 0.851807 32.0686V7.93231C0.851807 3.8293 4.29415 0.503613 8.5402 0.503613H33.4597C37.7057 0.503613 41.1481 3.8293 41.1481 7.93231Z" fill="#ECE6E2"/>
</svg>
