<svg width="630" height="676" viewBox="0 0 630 676" fill="none" xmlns="http://www.w3.org/2000/svg">
<mask id="mask0_44_1019" style="mask-type:alpha" maskUnits="userSpaceOnUse" x="0" y="0" width="630" height="676">
<rect width="630" height="676" fill="#231F20"/>
</mask>
<g mask="url(#mask0_44_1019)">
<path d="M485.783 331.244H582.94V428.401H485.783V331.244Z" fill="#F7B251"/>
<path d="M471.414 213.726C471.817 212.228 473.942 212.228 474.346 213.726L478.61 229.564C478.751 230.087 479.159 230.495 479.681 230.636L495.52 234.9C497.018 235.303 497.018 237.429 495.52 237.832L479.681 242.096C479.159 242.237 478.751 242.645 478.61 243.168L474.346 259.006C473.942 260.504 471.817 260.504 471.414 259.006L467.149 243.168C467.009 242.645 466.601 242.237 466.078 242.096L450.24 237.832C448.742 237.429 448.742 235.303 450.24 234.9L466.078 230.636C466.601 230.495 467.009 230.087 467.149 229.564L471.414 213.726Z" fill="#F69E62"/>
<path d="M214.86 121.123C215.263 119.626 217.388 119.626 217.792 121.123L222.056 136.962C222.197 137.484 222.605 137.892 223.127 138.033L238.966 142.298C240.464 142.701 240.464 144.826 238.966 145.229L223.127 149.494C222.605 149.634 222.197 150.043 222.056 150.565L217.792 166.403C217.388 167.901 215.263 167.901 214.86 166.403L210.595 150.565C210.455 150.043 210.047 149.634 209.524 149.494L193.686 145.229C192.188 144.826 192.188 142.701 193.686 142.298L209.524 138.033C210.047 137.892 210.455 137.484 210.595 136.962L214.86 121.123Z" fill="#ECE6E2"/>
<path d="M75.197 675.22C75.6003 673.722 77.7254 673.722 78.1287 675.22L82.3932 691.059C82.5339 691.581 82.9419 691.989 83.4644 692.13L99.3029 696.394C100.801 696.798 100.801 698.923 99.3029 699.326L83.4644 703.59C82.9419 703.731 82.5339 704.139 82.3932 704.662L78.1287 720.5C77.7254 721.998 75.6003 721.998 75.197 720.5L70.9325 704.662C70.7918 704.139 70.3837 703.731 69.8613 703.59L54.0228 699.326C52.525 698.923 52.5249 696.798 54.0228 696.394L69.8613 692.13C70.3837 691.989 70.7918 691.581 70.9325 691.059L75.197 675.22Z" fill="#194F59"/>
<path d="M554.149 272.93C554.553 271.432 556.678 271.432 557.081 272.93L558.93 279.798C559.071 280.321 559.479 280.729 560.001 280.869L566.87 282.719C568.368 283.122 568.368 285.247 566.87 285.65L560.001 287.5C559.479 287.64 559.071 288.048 558.93 288.571L557.081 295.439C556.678 296.937 554.553 296.937 554.149 295.439L552.3 288.571C552.159 288.048 551.751 287.64 551.229 287.5L544.361 285.65C542.863 285.247 542.863 283.122 544.361 282.719L551.229 280.869C551.751 280.729 552.159 280.321 552.3 279.798L554.149 272.93Z" fill="#F7B251"/>
<path d="M151.86 244.087C152.264 242.589 154.389 242.589 154.792 244.087L156.641 250.955C156.782 251.478 157.19 251.886 157.712 252.027L164.581 253.876C166.078 254.279 166.078 256.404 164.581 256.808L157.712 258.657C157.19 258.798 156.782 259.206 156.641 259.728L154.792 266.596C154.389 268.094 152.264 268.094 151.86 266.596L150.011 259.728C149.87 259.206 149.462 258.798 148.94 258.657L142.072 256.808C140.574 256.404 140.574 254.279 142.072 253.876L148.94 252.027C149.462 251.886 149.87 251.478 150.011 250.955L151.86 244.087Z" fill="#F7B251"/>
<path d="M555.615 477.506C555.615 607.878 449.927 713.566 319.554 713.566C189.182 713.566 83.4941 607.878 83.4941 477.506C83.4941 347.133 189.182 241.445 319.554 241.445C449.927 241.445 555.615 347.133 555.615 477.506Z" fill="#194F59"/>
<mask id="mask1_44_1019" style="mask-type:alpha" maskUnits="userSpaceOnUse" x="83" y="241" width="473" height="473">
<path d="M555.615 477.738C555.615 608.11 449.927 713.798 319.554 713.798C189.182 713.798 83.4941 608.11 83.4941 477.738C83.4941 347.366 189.182 241.678 319.554 241.678C449.927 241.678 555.615 347.366 555.615 477.738Z" fill="#194F59"/>
</mask>
<g mask="url(#mask1_44_1019)">
<path d="M485.783 331.244H582.94V428.401H485.783V331.244Z" fill="#F69E62" fill-opacity="0.64"/>
</g>
<mask id="mask2_44_1019" style="mask-type:alpha" maskUnits="userSpaceOnUse" x="83" y="241" width="473" height="473">
<path d="M555.615 477.507C555.615 607.879 449.927 713.567 319.554 713.567C189.182 713.567 83.4941 607.879 83.4941 477.507C83.4941 347.134 189.182 241.446 319.554 241.446C449.927 241.446 555.615 347.134 555.615 477.507Z" fill="#194F59"/>
</mask>
<g mask="url(#mask2_44_1019)">
<path d="M414.434 478.266H566.241V715.085H414.434V478.266Z" fill="#ECE6E2"/>
</g>
<mask id="mask3_44_1019" style="mask-type:alpha" maskUnits="userSpaceOnUse" x="83" y="241" width="473" height="473">
<path d="M555.615 477.507C555.615 607.879 449.927 713.567 319.554 713.567C189.182 713.567 83.4941 607.879 83.4941 477.507C83.4941 347.134 189.182 241.446 319.554 241.446C449.927 241.446 555.615 347.134 555.615 477.507Z" fill="#194F59"/>
</mask>
<g mask="url(#mask3_44_1019)">
<path d="M-54.6504 242.965H180.651V478.266H-54.6504V242.965Z" fill="#F7B251"/>
</g>
<path d="M157.88 376.554C157.88 420.151 122.537 455.494 78.9398 455.494C35.3425 455.494 0 420.151 0 376.554C0 332.957 35.3425 297.614 78.9398 297.614C122.537 297.614 157.88 332.957 157.88 376.554ZM28.4183 376.554C28.4183 404.456 51.0375 427.075 78.9398 427.075C106.842 427.075 129.461 404.456 129.461 376.554C129.461 348.652 106.842 326.033 78.9398 326.033C51.0375 326.033 28.4183 348.652 28.4183 376.554Z" fill="#F7B251"/>
<mask id="mask4_44_1019" style="mask-type:alpha" maskUnits="userSpaceOnUse" x="83" y="241" width="473" height="473">
<path d="M555.615 477.507C555.615 607.879 449.927 713.567 319.554 713.567C189.182 713.567 83.4941 607.879 83.4941 477.507C83.4941 347.134 189.182 241.446 319.554 241.446C449.927 241.446 555.615 347.134 555.615 477.507Z" fill="#194F59"/>
</mask>
<g mask="url(#mask4_44_1019)">
<path d="M157.88 376.555C157.88 420.152 122.537 455.495 78.9398 455.495C35.3425 455.495 0 420.152 0 376.555C0 332.958 35.3425 297.615 78.9398 297.615C122.537 297.615 157.88 332.958 157.88 376.555ZM28.4183 376.555C28.4183 404.457 51.0375 427.076 78.9398 427.076C106.842 427.076 129.461 404.457 129.461 376.555C129.461 348.653 106.842 326.034 78.9398 326.034C51.0375 326.034 28.4183 348.653 28.4183 376.555Z" fill="#194F59"/>
</g>
<path d="M48.5781 545.293H126V622.715H48.5781V545.293Z" fill="#F69E62"/>
<path d="M6.07227 622.715H48.5783V665.221H6.07227V622.715Z" fill="#F7B251"/>
<path d="M459.976 554.169H544.988C591.938 554.169 630 592.23 630 639.181H544.988C498.037 639.181 459.976 601.12 459.976 554.169Z" fill="#194F59"/>
<path d="M226.194 249.035C226.194 233.944 238.428 221.71 253.52 221.71H402.291C417.382 221.71 429.616 233.944 429.616 249.035V610.336C429.616 625.428 417.382 637.662 402.291 637.662H253.52C238.428 637.662 226.194 625.428 226.194 610.336V249.035Z" fill="#01010F"/>
<path d="M241.375 252.071C241.375 242.011 249.531 236.891 259.592 236.891H327.905H396.218C406.279 236.891 414.435 242.011 414.435 252.071V604.264C414.435 614.325 406.279 622.481 396.218 622.481H259.592C249.531 622.481 241.375 614.325 241.375 604.264V252.071Z" fill="#01010F"/>
<path d="M207.977 230.818C207.977 215.727 220.211 203.493 235.302 203.493H384.073C399.164 203.493 411.398 215.727 411.398 230.818V592.12C411.398 607.211 399.164 619.445 384.073 619.445H235.302C220.211 619.445 207.977 607.211 207.977 592.12V230.818Z" fill="#3F3F3F"/>
<path d="M223.157 233.855C223.157 223.794 231.313 218.674 241.374 218.674H309.687H378.001C388.062 218.674 396.218 223.794 396.218 233.855V586.047C396.218 596.108 388.062 604.264 378.001 604.264H241.374C231.313 604.264 223.157 596.108 223.157 586.047V233.855Z" fill="#ECE6E2"/>
<path d="M319.186 429.874L317.05 427.807C312.661 423.562 312.661 416.678 317.05 412.433L319.186 410.366C323.575 406.12 330.69 406.12 335.079 410.366L337.215 412.433C341.604 416.678 341.604 423.562 337.215 427.807L335.079 429.874C330.69 434.119 323.575 434.119 319.186 429.874Z" fill="#194F59"/>
<path d="M347.921 388.57C347.921 396.355 341.389 402.666 333.331 402.666H315.224C307.166 402.666 300.634 408.978 300.634 416.763V434.37C300.634 442.156 294.103 448.468 286.045 448.468H286.044C277.987 448.468 271.455 442.156 271.455 434.37V388.57C271.455 380.784 277.987 374.473 286.044 374.473H333.331C341.389 374.473 347.921 380.784 347.921 388.57Z" fill="#194F59"/>
</g>
</svg>
