<svg width="40" height="40" viewBox="0 0 40 40" fill="none" xmlns="http://www.w3.org/2000/svg">
<rect width="40" height="40" rx="20" fill="#F7B251"/>
<path d="M14.8511 27.198C13.4471 27.198 12.3011 26.724 11.4131 25.776C10.5251 24.828 10.0811 23.616 10.0811 22.14V19.044C10.0811 17.58 10.5251 16.374 11.4131 15.426C12.3011 14.478 13.4471 14.004 14.8511 14.004C16.2431 14.004 17.3831 14.478 18.2711 15.426C19.1591 16.374 19.6031 17.58 19.6031 19.044V22.14C19.6031 23.616 19.1591 24.828 18.2711 25.776C17.3831 26.724 16.2431 27.198 14.8511 27.198ZM13.1771 24.066C13.5971 24.534 14.1551 24.768 14.8511 24.768C15.5471 24.768 16.0991 24.534 16.5071 24.066C16.9271 23.598 17.1371 22.956 17.1371 22.14V19.044C17.1371 18.228 16.9271 17.592 16.5071 17.136C16.0991 16.668 15.5471 16.434 14.8511 16.434C14.1551 16.434 13.5971 16.668 13.1771 17.136C12.7571 17.592 12.5471 18.228 12.5471 19.044V22.14C12.5471 22.956 12.7571 23.598 13.1771 24.066ZM29.9686 24.57V27H21.2566V26.154C21.2566 25.806 21.2926 25.47 21.3646 25.146C21.4366 24.822 21.5206 24.54 21.6166 24.3C21.7246 24.048 21.8806 23.79 22.0846 23.526C22.2886 23.262 22.4626 23.046 22.6066 22.878C22.7506 22.71 22.9666 22.506 23.2546 22.266C23.5546 22.026 23.7826 21.852 23.9386 21.744C24.0946 21.624 24.3406 21.45 24.6766 21.222C25.0126 20.982 25.2466 20.814 25.3786 20.718C26.7226 19.782 27.3946 18.906 27.3946 18.09C27.3946 17.61 27.2446 17.214 26.9446 16.902C26.6446 16.59 26.2306 16.434 25.7026 16.434C25.1386 16.434 24.6706 16.608 24.2986 16.956C23.9386 17.292 23.7646 17.718 23.7766 18.234H21.2926C21.2926 16.986 21.7126 15.972 22.5526 15.192C23.4046 14.4 24.4726 14.004 25.7566 14.004C26.8966 14.004 27.8626 14.352 28.6546 15.048C29.4586 15.744 29.8606 16.71 29.8606 17.946C29.8606 18.966 29.6386 19.806 29.1946 20.466C28.7626 21.114 28.0846 21.774 27.1606 22.446C27.0766 22.506 26.8606 22.656 26.5126 22.896C26.1646 23.124 25.9006 23.304 25.7206 23.436C25.5406 23.568 25.3366 23.742 25.1086 23.958C24.8926 24.174 24.7486 24.378 24.6766 24.57H29.9686Z" fill="#231F20" fill-opacity="0.72"/>
</svg>
