<svg width="40" height="40" viewBox="0 0 40 40" fill="none" xmlns="http://www.w3.org/2000/svg">
<rect width="40" height="40" rx="20" fill="#F7B251"/>
<path d="M16.6968 27.198C15.2928 27.198 14.1468 26.724 13.2588 25.776C12.3708 24.828 11.9268 23.616 11.9268 22.14V19.044C11.9268 17.58 12.3708 16.374 13.2588 15.426C14.1468 14.478 15.2928 14.004 16.6968 14.004C18.0888 14.004 19.2288 14.478 20.1168 15.426C21.0048 16.374 21.4488 17.58 21.4488 19.044V22.14C21.4488 23.616 21.0048 24.828 20.1168 25.776C19.2288 26.724 18.0888 27.198 16.6968 27.198ZM15.0228 24.066C15.4428 24.534 16.0008 24.768 16.6968 24.768C17.3928 24.768 17.9448 24.534 18.3528 24.066C18.7728 23.598 18.9828 22.956 18.9828 22.14V19.044C18.9828 18.228 18.7728 17.592 18.3528 17.136C17.9448 16.668 17.3928 16.434 16.6968 16.434C16.0008 16.434 15.4428 16.668 15.0228 17.136C14.6028 17.592 14.3928 18.228 14.3928 19.044V22.14C14.3928 22.956 14.6028 23.598 15.0228 24.066ZM25.1003 27V16.65H22.4003L24.2003 14.22H27.5663V27H25.1003Z" fill="#231F20" fill-opacity="0.72"/>
</svg>
