<svg width="40" height="40" viewBox="0 0 40 40" fill="none" xmlns="http://www.w3.org/2000/svg">
<rect width="40" height="40" rx="20" fill="#F7B251"/>
<path d="M14.7193 27.198C13.3153 27.198 12.1693 26.724 11.2812 25.776C10.3933 24.828 9.94925 23.616 9.94925 22.14V19.044C9.94925 17.58 10.3933 16.374 11.2812 15.426C12.1693 14.478 13.3153 14.004 14.7193 14.004C16.1113 14.004 17.2513 14.478 18.1393 15.426C19.0273 16.374 19.4713 17.58 19.4713 19.044V22.14C19.4713 23.616 19.0273 24.828 18.1393 25.776C17.2513 26.724 16.1113 27.198 14.7193 27.198ZM13.0453 24.066C13.4653 24.534 14.0233 24.768 14.7193 24.768C15.4153 24.768 15.9673 24.534 16.3753 24.066C16.7953 23.598 17.0053 22.956 17.0053 22.14V19.044C17.0053 18.228 16.7953 17.592 16.3753 17.136C15.9673 16.668 15.4153 16.434 14.7193 16.434C14.0233 16.434 13.4653 16.668 13.0453 17.136C12.6253 17.592 12.4153 18.228 12.4153 19.044V22.14C12.4153 22.956 12.6253 23.598 13.0453 24.066ZM25.7687 27.198C24.4847 27.198 23.3807 26.814 22.4567 26.046C21.5447 25.266 21.0647 24.204 21.0167 22.86H23.4647C23.5247 23.472 23.7587 23.946 24.1667 24.282C24.5867 24.606 25.1207 24.768 25.7687 24.768C26.3447 24.768 26.8067 24.624 27.1547 24.336C27.5147 24.048 27.7007 23.658 27.7127 23.166C27.7127 22.626 27.5267 22.206 27.1547 21.906C26.7827 21.606 26.2727 21.456 25.6247 21.456H24.5447V19.44H25.5167C26.1047 19.44 26.5547 19.302 26.8667 19.026C27.1787 18.75 27.3407 18.378 27.3527 17.91C27.3647 17.478 27.2087 17.124 26.8847 16.848C26.5727 16.572 26.1767 16.434 25.6967 16.434C25.1207 16.434 24.6467 16.602 24.2747 16.938C23.9027 17.274 23.7227 17.706 23.7347 18.234H21.2507C21.2507 16.962 21.6947 15.942 22.5827 15.174C23.4707 14.394 24.5087 14.004 25.6967 14.004C26.9687 14.004 27.9767 14.364 28.7207 15.084C29.4647 15.792 29.8367 16.668 29.8367 17.712C29.8367 18.3 29.6987 18.84 29.4227 19.332C29.1467 19.812 28.8107 20.19 28.4147 20.466C28.9307 20.706 29.3567 21.078 29.6927 21.582C30.0287 22.086 30.1967 22.68 30.1967 23.364C30.1967 24.492 29.7887 25.416 28.9727 26.136C28.1567 26.844 27.0887 27.198 25.7687 27.198Z" fill="#231F20" fill-opacity="0.72"/>
</svg>
