<svg width="54" height="54" viewBox="0 0 54 54" fill="none" xmlns="http://www.w3.org/2000/svg">
<path d="M47.0674 23.9693C46.3599 23.587 40.2933 20.0669 38.0169 18.742L38.0103 18.7375L10.4368 2.81844C9.96706 2.53168 9.44032 2.35103 8.89345 2.28912C8.34658 2.2272 7.79279 2.28553 7.27081 2.46001C7.21191 2.48116 7.15656 2.50245 7.0993 2.52866C6.96634 2.572 6.83638 2.62402 6.71025 2.68441C6.18304 2.99953 5.75052 3.45093 5.4582 3.99111C5.16588 4.53129 5.02456 5.14028 5.04912 5.75399V48.471C5.03239 49.0428 5.1678 49.6087 5.44152 50.111C5.71523 50.6132 6.11743 51.0338 6.60698 51.3297C6.71989 51.3848 6.83622 51.4327 6.95525 51.473C7.02034 51.5031 7.0824 51.5293 7.14956 51.553C7.47179 51.6698 7.81114 51.7325 8.15385 51.7384C8.81196 51.7313 9.4567 51.5517 10.0237 51.2176C10.8982 50.71 38.0103 35.0567 38.0103 35.0567L47.0565 29.8338C47.6157 29.5536 48.0878 29.1259 48.4216 28.5969C48.7555 28.0679 48.9383 27.4577 48.9505 26.8323C48.923 26.2299 48.7336 25.646 48.4022 25.1422C48.0708 24.6383 47.6097 24.2332 47.0674 23.9693ZM9.54912 44.6378V9.22923L27.4144 26.9121L9.54912 44.6378ZM20.8396 39.774L30.6125 30.0775L33.199 32.6376C30.3535 34.2807 25.546 37.0566 20.8396 39.7741V39.774ZM30.6087 23.7428L20.7135 13.9485L33.2092 21.1627L30.6087 23.7428ZM37.2389 30.3053L33.8068 26.9083L37.2442 23.4977C38.8648 24.4388 41.3906 25.9037 43.13 26.9049L37.2389 30.3053Z" fill="#ECE6E2"/>
</svg>
