<svg width="32" height="32" viewBox="0 0 32 32" fill="none" xmlns="http://www.w3.org/2000/svg">
<path d="M16 2.6665C13.3629 2.6665 10.785 3.44849 8.59236 4.91358C6.39971 6.37866 4.69074 8.46104 3.68157 10.8974C2.6724 13.3337 2.40836 16.0146 2.92283 18.601C3.4373 21.1875 4.70718 23.5632 6.57188 25.4279C8.43658 27.2926 10.8123 28.5625 13.3988 29.077C15.9852 29.5914 18.6661 29.3274 21.1024 28.3182C23.5388 27.3091 25.6211 25.6001 27.0862 23.4074C28.5513 21.2148 29.3333 18.6369 29.3333 15.9998C29.3333 14.2489 28.9884 12.5151 28.3184 10.8974C27.6483 9.27972 26.6662 7.80986 25.4281 6.57175C24.1899 5.33363 22.7201 4.35151 21.1024 3.68144C19.4847 3.01138 17.7509 2.6665 16 2.6665ZM16 26.6665C13.8903 26.6665 11.828 26.0409 10.0739 24.8688C8.31976 23.6968 6.95259 22.0309 6.14525 20.0818C5.33792 18.1327 5.12668 15.988 5.53826 13.9189C5.94983 11.8497 6.96573 9.94912 8.45749 8.45736C9.94925 6.9656 11.8499 5.9497 13.919 5.53813C15.9881 5.12655 18.1328 5.33779 20.0819 6.14512C22.031 6.95246 23.6969 8.31963 24.869 10.0738C26.041 11.8279 26.6666 13.8902 26.6666 15.9998C26.6666 18.8288 25.5428 21.5419 23.5424 23.5423C21.5421 25.5427 18.8289 26.6665 16 26.6665ZM21.3333 14.6665H17.3333V10.6665C17.3333 10.3129 17.1928 9.97374 16.9428 9.72369C16.6927 9.47365 16.3536 9.33317 16 9.33317C15.6463 9.33317 15.3072 9.47365 15.0572 9.72369C14.8071 9.97374 14.6666 10.3129 14.6666 10.6665V14.6665H10.6666C10.313 14.6665 9.97387 14.807 9.72382 15.057C9.47378 15.3071 9.3333 15.6462 9.3333 15.9998C9.3333 16.3535 9.47378 16.6926 9.72382 16.9426C9.97387 17.1927 10.313 17.3332 10.6666 17.3332H14.6666V21.3332C14.6666 21.6868 14.8071 22.0259 15.0572 22.276C15.3072 22.526 15.6463 22.6665 16 22.6665C16.3536 22.6665 16.6927 22.526 16.9428 22.276C17.1928 22.0259 17.3333 21.6868 17.3333 21.3332V17.3332H21.3333C21.6869 17.3332 22.0261 17.1927 22.2761 16.9426C22.5262 16.6926 22.6666 16.3535 22.6666 15.9998C22.6666 15.6462 22.5262 15.3071 22.2761 15.057C22.0261 14.807 21.6869 14.6665 21.3333 14.6665Z" fill="#194F59"/>
</svg>
