<svg width="360" height="360" viewBox="0 0 360 360" fill="none" xmlns="http://www.w3.org/2000/svg">
<rect width="360" height="360" rx="180" fill="#C4CDCE"/>
<mask id="mask0_8_2221" style="mask-type:alpha" maskUnits="userSpaceOnUse" x="0" y="0" width="360" height="360">
<rect width="360" height="360" rx="180" fill="#C4CDCE"/>
</mask>
<g mask="url(#mask0_8_2221)">
<path d="M69 93.7589C69 77.3235 82.3235 64 98.7589 64H260.78C277.215 64 290.538 77.3235 290.538 93.7589V487.238C290.538 503.673 277.215 516.997 260.78 516.997H98.7589C82.3235 516.997 69 503.673 69 487.238V93.7589Z" fill="#3F3F3F"/>
<path d="M85.5327 97.0654C85.5327 86.1085 94.4151 80.5327 105.372 80.5327H254.166C265.123 80.5327 274.006 86.1085 274.006 97.0654V480.625C274.006 491.581 265.123 500.464 254.166 500.464H105.372C94.4151 500.464 85.5327 491.581 85.5327 480.625V97.0654Z" fill="#E6E6E7"/>
<path d="M123.558 77.2262H235.98V80.5327C235.98 87.8373 230.059 93.7589 222.754 93.7589H136.784C129.48 93.7589 123.558 87.8373 123.558 80.5327V77.2262Z" fill="#3F3F3F"/>
<path fill-rule="evenodd" clip-rule="evenodd" d="M135.477 183.383H146.703C147.807 183.383 148.703 182.487 148.703 181.383C148.703 180.278 147.807 179.383 146.703 179.383H135.13C133.112 179.383 131.477 181.018 131.477 183.036V194.609C131.477 195.714 132.372 196.609 133.477 196.609C134.581 196.609 135.477 195.714 135.477 194.609V183.383ZM210.834 181.383C210.834 180.278 211.729 179.383 212.834 179.383H224.407C226.424 179.383 228.06 181.018 228.06 183.036V194.609C228.06 195.714 227.164 196.609 226.06 196.609C224.955 196.609 224.06 195.714 224.06 194.609V183.383H212.834C211.729 183.383 210.834 182.487 210.834 181.383ZM179.768 190.129C180.873 190.129 181.768 191.025 181.768 192.129V225.195C181.768 227.212 180.133 228.848 178.115 228.848H145.049C143.945 228.848 143.049 227.952 143.049 226.848C143.049 225.743 143.945 224.848 145.049 224.848H177.768V192.129C177.768 191.025 178.664 190.129 179.768 190.129ZM149.529 196.609V210.795H164.542V196.609H149.529ZM145.529 196.262C145.529 194.245 147.165 192.609 149.183 192.609H164.889C166.906 192.609 168.542 194.245 168.542 196.262V211.142C168.542 213.159 166.906 214.795 164.889 214.795H149.183C147.165 214.795 145.529 213.159 145.529 211.142V196.262ZM194.994 196.609V210.795H210.007V196.609H194.994ZM190.994 196.262C190.994 194.245 192.63 192.609 194.648 192.609H210.354C212.371 192.609 214.007 194.245 214.007 196.262V211.142C214.007 213.159 212.371 214.795 210.354 214.795H194.648C192.63 214.795 190.994 213.159 190.994 211.142V196.262ZM187.688 226.848C187.688 225.743 188.583 224.848 189.688 224.848H201.261C202.365 224.848 203.261 225.743 203.261 226.848C203.261 227.952 202.365 228.848 201.261 228.848H189.688C188.583 228.848 187.688 227.952 187.688 226.848ZM205.874 226.848C205.874 225.743 206.769 224.848 207.874 224.848H214.487C215.591 224.848 216.487 225.743 216.487 226.848C216.487 227.952 215.591 228.848 214.487 228.848H207.874C206.769 228.848 205.874 227.952 205.874 226.848ZM179.768 235.594C180.873 235.594 181.768 236.489 181.768 237.594V260.74C181.768 261.844 180.873 262.74 179.768 262.74C178.664 262.74 177.768 261.844 177.768 260.74V237.594C177.768 236.489 178.664 235.594 179.768 235.594ZM148.703 241.247V255.433H163.715V241.247H148.703ZM144.703 240.901C144.703 238.883 146.338 237.247 148.356 237.247H164.062C166.08 237.247 167.715 238.883 167.715 240.901V255.78C167.715 257.798 166.08 259.433 164.062 259.433H148.356C146.338 259.433 144.703 257.798 144.703 255.78V240.901ZM194.994 241.247V255.433H210.007V241.247H194.994ZM190.994 240.901C190.994 238.883 192.63 237.247 194.648 237.247H210.354C212.371 237.247 214.007 238.883 214.007 240.901V255.78C214.007 257.798 212.371 259.433 210.354 259.433H194.648C192.63 259.433 190.994 257.798 190.994 255.78V240.901ZM133.477 258.74C134.581 258.74 135.477 259.635 135.477 260.74V271.966H146.703C147.807 271.966 148.703 272.861 148.703 273.966C148.703 275.071 147.807 275.966 146.703 275.966H135.13C133.112 275.966 131.477 274.33 131.477 272.313V260.74C131.477 259.635 132.372 258.74 133.477 258.74ZM226.06 258.74C227.164 258.74 228.06 259.635 228.06 260.74V272.313C228.06 274.33 226.424 275.966 224.407 275.966H212.834C211.729 275.966 210.834 275.071 210.834 273.966C210.834 272.861 211.729 271.966 212.834 271.966H224.06V260.74C224.06 259.635 224.955 258.74 226.06 258.74Z" fill="#194F59"/>
<path fill-rule="evenodd" clip-rule="evenodd" d="M141.956 342.578C141.956 340.921 143.299 339.578 144.956 339.578H214.393C216.05 339.578 217.393 340.921 217.393 342.578C217.393 344.235 216.05 345.578 214.393 345.578H144.956C143.299 345.578 141.956 344.235 141.956 342.578Z" fill="#F69E62"/>
</g>
</svg>
