<svg width="360" height="360" viewBox="0 0 360 360" fill="none" xmlns="http://www.w3.org/2000/svg">
<rect width="360" height="360" rx="180" fill="#C4CDCE"/>
<mask id="mask0_8_2266" style="mask-type:alpha" maskUnits="userSpaceOnUse" x="0" y="0" width="360" height="360">
<rect width="360" height="360" rx="180" fill="#C4CDCE"/>
</mask>
<g mask="url(#mask0_8_2266)">
<path d="M69 93.7591C69 77.3236 82.3236 64 98.7591 64H260.781C277.217 64 290.54 77.3236 290.54 93.7591V487.241C290.54 503.676 277.217 517 260.781 517H98.7591C82.3236 517 69 503.676 69 487.241V93.7591Z" fill="#3F3F3F"/>
<path d="M85.5328 97.0657C85.5328 86.1087 94.4153 80.5328 105.372 80.5328H254.168C265.125 80.5328 274.007 86.1087 274.007 97.0657V480.628C274.007 491.585 265.125 500.467 254.168 500.467H105.372C94.4153 500.467 85.5328 491.585 85.5328 480.628V97.0657Z" fill="#E6E6E7"/>
<path d="M123.558 77.2263H235.982V80.5328C235.982 87.8375 230.06 93.7591 222.755 93.7591H136.785C129.48 93.7591 123.558 87.8375 123.558 80.5328V77.2263Z" fill="#3F3F3F"/>
<path d="M133.479 227.675C133.479 202.108 154.204 181.383 179.77 181.383C205.337 181.383 226.062 202.108 226.062 227.675C226.062 253.241 205.337 273.967 179.77 273.967C154.204 273.967 133.479 253.241 133.479 227.675Z" fill="#194F59"/>
<path d="M159.956 238.708C159.596 238.708 159.243 238.608 158.937 238.42C158.631 238.231 158.384 237.96 158.222 237.639C155.935 233.087 155.141 227.929 155.955 222.899C156.77 217.87 159.15 213.226 162.757 209.628C172.21 200.175 187.59 200.175 197.042 209.628C197.395 209.994 197.591 210.483 197.586 210.991C197.582 211.499 197.378 211.985 197.019 212.344C196.66 212.704 196.174 212.907 195.666 212.912C195.158 212.916 194.668 212.721 194.303 212.368C186.358 204.426 173.442 204.426 165.497 212.368C162.466 215.391 160.466 219.293 159.783 223.518C159.099 227.743 159.765 232.077 161.688 235.901C161.836 236.197 161.906 236.525 161.892 236.855C161.878 237.185 161.779 237.506 161.606 237.788C161.432 238.069 161.19 238.301 160.901 238.462C160.613 238.623 160.288 238.708 159.957 238.708H159.956Z" fill="white"/>
<path d="M179.9 251.003C176.716 251.009 173.563 250.386 170.621 249.169C167.68 247.953 165.007 246.167 162.757 243.915C162.577 243.735 162.435 243.521 162.337 243.286C162.24 243.051 162.19 242.799 162.19 242.545C162.19 242.29 162.24 242.038 162.337 241.803C162.434 241.568 162.577 241.354 162.757 241.175C162.937 240.995 163.15 240.852 163.385 240.754C163.62 240.657 163.872 240.607 164.127 240.607C164.381 240.607 164.633 240.657 164.868 240.754C165.103 240.851 165.317 240.994 165.497 241.174C173.442 249.116 186.358 249.116 194.303 241.174C197.334 238.151 199.333 234.249 200.017 230.024C200.701 225.798 200.034 221.465 198.112 217.64C197.882 217.181 197.843 216.649 198.005 216.161C198.167 215.674 198.516 215.27 198.975 215.04C199.435 214.809 199.967 214.771 200.455 214.933C200.942 215.095 201.346 215.444 201.576 215.903C203.43 219.599 204.308 223.708 204.125 227.839C203.943 231.969 202.707 235.985 200.534 239.503C198.362 243.021 195.325 245.924 191.713 247.937C188.101 249.95 184.035 251.006 179.9 251.003Z" fill="white"/>
<path d="M187.418 213.758C186.923 213.755 186.447 213.563 186.089 213.22C185.731 212.877 185.517 212.411 185.493 211.915C185.469 211.42 185.635 210.935 185.958 210.559C186.281 210.182 186.736 209.944 187.229 209.893L193.355 209.282L192.126 203.125C192.033 202.624 192.14 202.106 192.426 201.684C192.712 201.261 193.152 200.968 193.652 200.869C194.152 200.769 194.672 200.871 195.097 201.151C195.523 201.432 195.821 201.869 195.926 202.368L197.572 210.626C197.625 210.891 197.622 211.164 197.563 211.428C197.504 211.691 197.39 211.94 197.229 212.157C197.068 212.375 196.864 212.556 196.629 212.689C196.394 212.823 196.133 212.906 195.864 212.932L187.613 213.755C187.548 213.755 187.483 213.758 187.418 213.758Z" fill="white"/>
<path d="M165.771 252.733C165.323 252.732 164.889 252.577 164.543 252.293C164.197 252.008 163.96 251.613 163.872 251.174L162.226 242.923C162.174 242.658 162.177 242.384 162.236 242.12C162.295 241.856 162.409 241.608 162.57 241.391C162.731 241.173 162.935 240.992 163.171 240.859C163.406 240.725 163.666 240.643 163.935 240.616L172.186 239.793C172.698 239.742 173.208 239.896 173.606 240.221C174.004 240.546 174.256 241.016 174.308 241.527C174.359 242.038 174.205 242.549 173.88 242.947C173.555 243.345 173.085 243.597 172.574 243.649L166.448 244.26L167.675 250.417C167.731 250.698 167.723 250.988 167.654 251.267C167.584 251.545 167.453 251.804 167.271 252.026C167.089 252.247 166.86 252.425 166.6 252.548C166.341 252.67 166.058 252.733 165.771 252.733Z" fill="white"/>
</g>
</svg>
