<svg width="465" height="120" viewBox="0 0 465 120" fill="none" xmlns="http://www.w3.org/2000/svg">
<g clip-path="url(#clip0_8_2289)">
<path d="M105.826 85.2268H104.184V75.9773H93.1585V85.2268H91.53V65.9371H93.1585V74.6012H104.184V65.9371H105.826V85.2268Z" fill="#ECE6E2"/>
<path d="M115.777 85.4931C114.557 85.4931 113.455 85.1935 112.47 84.5915C111.486 83.9922 110.72 83.1544 110.171 82.0807C109.624 81.0071 109.349 79.8058 109.349 78.4714V77.9026C109.349 76.5238 109.616 75.2837 110.151 74.1795C110.687 73.0753 111.43 72.207 112.384 71.5772C113.339 70.9447 114.374 70.6312 115.486 70.6312C117.226 70.6312 118.607 71.2249 119.625 72.4123C120.646 73.5997 121.157 75.2226 121.157 77.2812V78.169H110.928V78.4741C110.928 80.0999 111.394 81.4537 112.326 82.5357C113.258 83.6177 114.432 84.1587 115.844 84.1587C116.693 84.1587 117.442 84.0033 118.091 83.6954C118.74 83.3874 119.331 82.8908 119.858 82.2111L120.854 82.9657C119.684 84.6497 117.991 85.4931 115.777 85.4931ZM115.486 71.9795C114.293 71.9795 113.289 72.415 112.47 73.2917C111.655 74.1656 111.155 75.3419 110.981 76.8179H119.581V76.6459C119.537 75.267 119.143 74.1462 118.402 73.2806C117.658 72.4123 116.685 71.9795 115.486 71.9795Z" fill="#ECE6E2"/>
<path d="M125.826 85.2268H124.236V64.8773H125.826V85.2268Z" fill="#ECE6E2"/>
<path d="M138.28 81.5842C138.28 80.799 137.964 80.1665 137.331 79.6893C136.699 79.2121 135.747 78.8404 134.476 78.5713C133.203 78.3022 132.218 77.9914 131.513 77.6446C130.811 77.2951 130.29 76.8706 129.951 76.3657C129.61 75.8635 129.441 75.2532 129.441 74.5374C129.441 73.4083 129.913 72.4733 130.859 71.7354C131.805 70.9974 133.014 70.6284 134.487 70.6284C136.085 70.6284 137.367 71.0251 138.335 71.813C139.304 72.6037 139.786 73.6358 139.786 74.9064H138.197C138.197 74.0686 137.847 73.3694 137.142 72.8118C136.441 72.2542 135.556 71.9767 134.487 71.9767C133.444 71.9767 132.606 72.2098 131.977 72.6731C131.344 73.1364 131.031 73.7384 131.031 74.4819C131.031 75.1977 131.294 75.7526 131.819 76.1437C132.346 76.5377 133.303 76.8984 134.695 77.223C136.085 77.5503 137.129 77.8999 137.822 78.2689C138.516 78.6406 139.032 79.0873 139.365 79.6061C139.7 80.1277 139.87 80.7574 139.87 81.5009C139.87 82.7105 139.381 83.6788 138.405 84.4029C137.428 85.127 136.155 85.4904 134.582 85.4904C132.912 85.4904 131.558 85.0853 130.52 84.278C129.483 83.4707 128.964 82.447 128.964 81.2096H130.553C130.614 82.1363 131.006 82.8576 131.724 83.3764C132.446 83.8924 133.397 84.1532 134.579 84.1532C135.683 84.1532 136.574 83.909 137.256 83.4235C137.939 82.9408 138.28 82.3249 138.28 81.5842Z" fill="#ECE6E2"/>
<path d="M142.932 66.7527C142.932 66.4531 143.029 66.2006 143.224 65.9953C143.418 65.79 143.684 65.6874 144.02 65.6874C144.356 65.6874 144.622 65.79 144.822 65.9953C145.019 66.2006 145.119 66.4531 145.119 66.7527C145.119 67.0496 145.019 67.302 144.822 67.5018C144.622 67.7043 144.356 67.8042 144.02 67.8042C143.684 67.8042 143.418 67.7043 143.224 67.5018C143.029 67.2993 142.932 67.0496 142.932 66.7527ZM144.799 85.2268H143.21V70.892H144.799V85.2268Z" fill="#ECE6E2"/>
<path d="M150.293 70.892L150.345 73.3445C150.884 72.4622 151.555 71.7881 152.36 71.3248C153.164 70.8615 154.052 70.6284 155.023 70.6284C156.56 70.6284 157.703 71.0612 158.455 71.9268C159.207 72.7924 159.584 74.0908 159.595 75.8219V85.2296H158.019V75.8081C158.011 74.5291 157.739 73.5747 157.203 72.9477C156.668 72.3207 155.814 72.0072 154.64 72.0072C153.661 72.0072 152.79 72.3152 152.038 72.9283C151.283 73.5442 150.723 74.371 150.359 75.4141V85.2324H148.783V70.8975H150.293V70.892Z" fill="#ECE6E2"/>
<path d="M162.824 77.9276C162.824 75.6832 163.321 73.9049 164.314 72.5954C165.31 71.2832 166.658 70.6284 168.362 70.6284C170.315 70.6284 171.799 71.4052 172.814 72.9588L172.895 70.892H174.376V84.9355C174.376 86.7804 173.86 88.2425 172.826 89.3217C171.791 90.4009 170.392 90.9391 168.625 90.9391C167.627 90.9391 166.675 90.7172 165.771 90.2705C164.866 89.8239 164.15 89.2302 163.629 88.4894L164.517 87.5351C165.64 88.9139 166.972 89.6019 168.517 89.6019C169.843 89.6019 170.875 89.2107 171.619 88.4284C172.359 87.646 172.745 86.5613 172.77 85.1769V83.3736C171.755 84.7857 170.276 85.4932 168.331 85.4932C166.669 85.4932 165.338 84.8301 164.331 83.5068C163.324 82.1834 162.821 80.394 162.821 78.1412L162.824 77.9276ZM164.428 78.2051C164.428 80.0333 164.794 81.476 165.529 82.5302C166.262 83.5844 167.296 84.1143 168.631 84.1143C170.581 84.1143 171.966 83.2404 172.778 81.4898V74.8259C172.407 73.9076 171.874 73.2085 171.175 72.7258C170.476 72.2431 169.638 72.0045 168.659 72.0045C167.327 72.0045 166.287 72.5288 165.546 73.5747C164.799 74.6207 164.428 76.1659 164.428 78.2051Z" fill="#ECE6E2"/>
<path d="M189.802 78.205C189.802 80.4384 189.308 82.2139 188.317 83.5234C187.33 84.8356 185.998 85.4904 184.331 85.4904C182.336 85.4904 180.824 84.7496 179.797 83.2654L179.731 85.2268H178.247V64.8773H179.822V72.9727C180.829 71.4108 182.322 70.6284 184.3 70.6284C185.995 70.6284 187.335 71.2748 188.32 72.5704C189.305 73.8632 189.799 75.6638 189.799 77.9692L189.802 78.205ZM188.215 77.9276C188.215 76.0383 187.848 74.579 187.113 73.5497C186.381 72.5205 185.346 72.0045 184.012 72.0045C182.996 72.0045 182.136 72.2541 181.429 72.7535C180.721 73.2529 180.186 73.9825 179.825 74.9452V81.4094C180.621 83.2127 182.025 84.1115 184.039 84.1115C185.346 84.1115 186.37 83.5955 187.108 82.5607C187.843 81.5314 188.215 79.9862 188.215 77.9276Z" fill="#ECE6E2"/>
<path d="M192.332 77.8471C192.332 76.4683 192.598 75.2282 193.134 74.124C193.669 73.0198 194.424 72.1598 195.4 71.5467C196.377 70.9336 197.481 70.6256 198.718 70.6256C200.624 70.6256 202.172 71.2942 203.354 72.6314C204.539 73.9687 205.13 75.7414 205.13 77.9498V78.2827C205.13 79.6699 204.861 80.9183 204.328 82.0253C203.792 83.135 203.041 83.9895 202.07 84.5887C201.099 85.1907 199.989 85.4904 198.743 85.4904C196.846 85.4904 195.3 84.8218 194.113 83.4845C192.923 82.1473 192.332 80.3745 192.332 78.1662V77.8471ZM193.921 78.2855C193.921 79.9972 194.365 81.4066 195.253 82.5052C196.141 83.6066 197.306 84.1559 198.743 84.1559C200.175 84.1559 201.334 83.6066 202.222 82.5052C203.11 81.4066 203.554 79.9556 203.554 78.1523V77.8471C203.554 76.7513 203.349 75.7498 202.944 74.8398C202.536 73.9298 201.967 73.2251 201.235 72.7258C200.502 72.2264 199.662 71.9767 198.718 71.9767C197.303 71.9767 196.152 72.5316 195.261 73.6385C194.368 74.7482 193.921 76.1992 193.921 77.9914V78.2855Z" fill="#ECE6E2"/>
<path d="M214.887 72.2431C214.551 72.182 214.193 72.1515 213.813 72.1515C212.823 72.1515 211.985 72.4262 211.302 72.981C210.617 73.5331 210.129 74.3349 209.838 75.3864V85.2296H208.262V70.8947H209.813L209.838 73.1725C210.678 71.4774 212.024 70.6284 213.88 70.6284C214.321 70.6284 214.671 70.6867 214.929 70.8004L214.887 72.2431Z" fill="#ECE6E2"/>
<path d="M216.282 77.9276C216.282 75.6832 216.779 73.9049 217.772 72.5954C218.768 71.2832 220.117 70.6284 221.82 70.6284C223.773 70.6284 225.257 71.4052 226.273 72.9588L226.353 70.892H227.835V84.9355C227.835 86.7804 227.319 88.2425 226.284 89.3217C225.249 90.4009 223.851 90.9391 222.084 90.9391C221.085 90.9391 220.133 90.7172 219.229 90.2705C218.324 89.8239 217.609 89.2302 217.087 88.4894L217.975 87.5351C219.098 88.9139 220.43 89.6019 221.975 89.6019C223.301 89.6019 224.333 89.2107 225.077 88.4284C225.818 87.646 226.203 86.5613 226.228 85.1769V83.3736C225.213 84.7857 223.734 85.4932 221.789 85.4932C220.128 85.4932 218.796 84.8301 217.789 83.5068C216.782 82.1806 216.28 80.394 216.28 78.1412L216.282 77.9276ZM217.886 78.2051C217.886 80.0333 218.252 81.476 218.987 82.5302C219.72 83.5844 220.755 84.1143 222.089 84.1143C224.039 84.1143 225.424 83.2404 226.237 81.4898V74.8259C225.865 73.9076 225.332 73.2085 224.633 72.7258C223.934 72.2431 223.096 72.0045 222.117 72.0045C220.785 72.0045 219.745 72.5288 219.004 73.5747C218.258 74.6207 217.886 76.1659 217.886 78.2051Z" fill="#ECE6E2"/>
<path d="M102.447 107.618C102.447 106.55 102.07 105.704 101.321 105.08C100.569 104.458 99.1954 103.865 97.2007 103.304C95.206 102.744 93.7467 102.133 92.8284 101.47C91.5217 100.535 90.8669 99.3064 90.8669 97.7889C90.8669 96.3129 91.4717 95.1144 92.6869 94.1906C93.902 93.2668 95.4557 92.8062 97.345 92.8062C98.6267 92.8062 99.7725 93.0531 100.785 93.5497C101.795 94.0436 102.58 94.7344 103.138 95.6166C103.695 96.4988 103.973 97.4837 103.973 98.5712H102.33C102.33 97.2507 101.881 96.1909 100.979 95.3891C100.078 94.5873 98.8681 94.185 97.3477 94.185C95.8718 94.185 94.6983 94.5152 93.8244 95.1727C92.9505 95.833 92.5121 96.693 92.5121 97.7528C92.5121 98.7349 92.9061 99.5367 93.6912 100.155C94.4763 100.774 95.7359 101.321 97.467 101.795C99.1982 102.269 100.51 102.76 101.401 103.268C102.294 103.776 102.966 104.383 103.415 105.091C103.865 105.798 104.092 106.633 104.092 107.593C104.092 109.114 103.485 110.332 102.269 111.25C101.054 112.168 99.4534 112.629 97.467 112.629C96.1076 112.629 94.8592 112.387 93.7245 111.899C92.5898 111.414 91.727 110.734 91.1388 109.86C90.5507 108.986 90.2566 107.982 90.2566 106.853H91.8879C91.8879 108.212 92.3956 109.286 93.411 110.074C94.4264 110.859 95.7775 111.253 97.4643 111.253C98.9652 111.253 100.172 110.92 101.082 110.259C101.992 109.594 102.447 108.714 102.447 107.618Z" fill="#ECE6E2"/>
<path d="M111.042 109.064L111.28 110.295L111.599 108.997L115.045 98.0275H116.396L119.8 108.906L120.172 110.415L120.477 109.022L123.418 98.0247H125.06L120.888 112.36H119.537L115.855 100.99L115.683 100.208L115.511 101.004L111.893 112.36H110.542L106.384 98.0247H108.012L111.042 109.064Z" fill="#ECE6E2"/>
<path d="M132.975 112.626C131.755 112.626 130.653 112.326 129.668 111.724C128.684 111.125 127.918 110.287 127.369 109.213C126.822 108.14 126.547 106.939 126.547 105.604V105.035C126.547 103.657 126.814 102.416 127.349 101.312C127.885 100.208 128.628 99.3397 129.582 98.7099C130.537 98.0774 131.572 97.7639 132.684 97.7639C134.424 97.7639 135.805 98.3576 136.823 99.545C137.844 100.732 138.355 102.355 138.355 104.414V105.302H128.126V105.607C128.126 107.233 128.592 108.586 129.524 109.668C130.456 110.75 131.63 111.291 133.042 111.291C133.891 111.291 134.64 111.136 135.289 110.828C135.938 110.52 136.529 110.024 137.056 109.344L138.052 110.098C136.882 111.782 135.192 112.626 132.975 112.626ZM132.684 99.1122C131.491 99.1122 130.487 99.5478 129.668 100.424C128.853 101.298 128.353 102.475 128.179 103.951H136.779V103.779C136.735 102.4 136.341 101.279 135.6 100.413C134.856 99.545 133.885 99.1122 132.684 99.1122Z" fill="#ECE6E2"/>
<path d="M140.744 105.06C140.744 102.835 141.24 101.06 142.233 99.7393C143.229 98.4187 144.578 97.7584 146.281 97.7584C148.218 97.7584 149.691 98.5213 150.706 100.05V92.0073H152.282V112.357H150.798L150.731 110.448C149.716 111.896 148.22 112.62 146.253 112.62C144.603 112.62 143.268 111.957 142.258 110.626C141.248 109.297 140.744 107.502 140.744 105.241V105.06ZM142.347 105.341C142.347 107.169 142.713 108.612 143.448 109.666C144.181 110.72 145.216 111.25 146.55 111.25C148.5 111.25 149.888 110.387 150.709 108.667V101.934C149.888 100.069 148.512 99.1372 146.575 99.1372C145.243 99.1372 144.203 99.6616 143.462 100.707C142.719 101.756 142.347 103.299 142.347 105.341Z" fill="#ECE6E2"/>
<path d="M161.831 112.626C160.61 112.626 159.509 112.326 158.524 111.724C157.539 111.125 156.773 110.287 156.224 109.213C155.678 108.14 155.403 106.939 155.403 105.604V105.035C155.403 103.657 155.669 102.416 156.205 101.312C156.74 100.208 157.484 99.3397 158.438 98.7099C159.392 98.0774 160.427 97.7639 161.54 97.7639C163.279 97.7639 164.661 98.3576 165.679 99.545C166.7 100.732 167.21 102.355 167.21 104.414V105.302H156.982V105.607C156.982 107.233 157.448 108.586 158.38 109.668C159.312 110.75 160.485 111.291 161.898 111.291C162.747 111.291 163.496 111.136 164.145 110.828C164.794 110.52 165.385 110.024 165.912 109.344L166.908 110.098C165.74 111.782 164.048 112.626 161.831 112.626ZM161.54 99.1122C160.347 99.1122 159.342 99.5478 158.524 100.424C157.708 101.298 157.209 102.475 157.034 103.951H165.635V103.779C165.59 102.4 165.196 101.279 164.456 100.413C163.712 99.545 162.741 99.1122 161.54 99.1122Z" fill="#ECE6E2"/>
<path d="M171.685 98.0247L171.738 100.477C172.276 99.595 172.948 98.9208 173.752 98.4575C174.557 97.9942 175.445 97.7612 176.416 97.7612C177.952 97.7612 179.096 98.194 179.847 99.0595C180.599 99.9251 180.976 101.224 180.988 102.955V112.362H179.412V102.941C179.403 101.662 179.132 100.707 178.596 100.078C178.061 99.4507 177.206 99.1372 176.033 99.1372C175.053 99.1372 174.182 99.4452 173.43 100.058C172.676 100.674 172.115 101.501 171.752 102.544V112.362H170.173V98.0275L171.685 98.0247Z" fill="#ECE6E2"/>
<path d="M120.91 47.0634H89.0886V40.7491L104.106 24.7441C106.167 22.4913 107.693 20.5243 108.681 18.8459C109.668 17.1674 110.162 15.5722 110.162 14.063C110.162 12.0017 109.641 10.3815 108.6 9.19961C107.56 8.01776 106.07 7.4296 104.137 7.4296C102.053 7.4296 100.411 8.14815 99.2093 9.58247C98.0081 11.0168 97.4088 12.9033 97.4088 15.2421H88.1648C88.1648 12.415 88.8389 9.83215 90.19 7.49341C91.5411 5.15467 93.4471 3.32085 95.9134 1.99195C98.3798 0.66306 101.174 0 104.3 0C109.083 0 112.798 1.14856 115.445 3.44292C118.091 5.73727 119.415 8.98044 119.415 13.1669C119.415 15.4612 118.821 17.8027 117.628 20.1803C116.438 22.5607 114.396 25.335 111.505 28.5033L100.952 39.631H120.913L120.91 47.0634Z" fill="#ECE6E2"/>
<path d="M158.377 47.0634H126.556V40.7491L141.573 24.7441C143.634 22.4913 145.16 20.5243 146.148 18.8459C147.135 17.1674 147.629 15.5722 147.629 14.063C147.629 12.0017 147.108 10.3815 146.067 9.19961C145.027 8.02053 143.537 7.4296 141.604 7.4296C139.52 7.4296 137.878 8.14815 136.676 9.58247C135.475 11.0168 134.876 12.9033 134.876 15.2421H125.629C125.629 12.415 126.303 9.83215 127.654 7.49341C129.005 5.15467 130.911 3.32085 133.378 1.99195C135.844 0.66306 138.638 0 141.764 0C146.547 0 150.262 1.14856 152.909 3.44292C155.556 5.73727 156.879 8.98044 156.879 13.1669C156.879 15.4612 156.285 17.8027 155.092 20.1803C153.902 22.5607 151.86 25.335 148.969 28.5033L138.416 39.631H158.377V47.0634Z" fill="#ECE6E2"/>
<path d="M59.7226 0.638062V39.3425H9.56582V0.638062H0V47.0606H69.2856V0.638062H59.7226Z" fill="#ECE6E2"/>
<path d="M0 112.36H9.56582V73.6551H59.7226V112.36H69.2856V65.937H0V112.36Z" fill="#ECE6E2"/>
<path d="M307.324 67.3131H300.76V85.0992H299.143V67.3131H292.593V65.9454H307.327V67.3131H307.324Z" fill="#ECE6E2"/>
<path d="M311.777 73.2723C312.296 72.4206 312.956 71.7631 313.763 71.297C314.571 70.8337 315.453 70.6007 316.407 70.6007C317.933 70.6007 319.071 71.0307 319.814 71.8907C320.56 72.7508 320.938 74.038 320.946 75.7581V85.0992H319.381V75.747C319.373 74.4736 319.104 73.5276 318.571 72.9061C318.041 72.2819 317.192 71.9712 316.027 71.9712C315.053 71.9712 314.193 72.2736 313.441 72.8839C312.692 73.4943 312.138 74.3155 311.777 75.3503V85.0992H310.212V64.8939H311.777V73.2723Z" fill="#ECE6E2"/>
<path d="M330.509 85.36C329.299 85.36 328.204 85.0603 327.227 84.4666C326.25 83.8701 325.49 83.0379 324.947 81.9753C324.403 80.9072 324.131 79.7142 324.131 78.3909V77.8249C324.131 76.4572 324.397 75.2254 324.927 74.1295C325.457 73.0337 326.195 72.1709 327.144 71.5439C328.09 70.9169 329.116 70.6034 330.223 70.6034C331.952 70.6034 333.322 71.1943 334.335 72.3734C335.35 73.5525 335.855 75.1644 335.855 77.2063V78.0857H325.698V78.3881C325.698 80.0028 326.162 81.3455 327.086 82.422C328.009 83.4956 329.175 84.0311 330.578 84.0311C331.419 84.0311 332.165 83.8785 332.809 83.5705C333.455 83.2654 334.041 82.7715 334.565 82.0974L335.553 82.8492C334.39 84.5249 332.709 85.36 330.509 85.36ZM330.22 71.9434C329.036 71.9434 328.04 72.379 327.227 73.2445C326.417 74.1157 325.923 75.2809 325.748 76.7457H334.285V76.5737C334.24 75.206 333.852 74.0907 333.114 73.2334C332.376 72.3762 331.411 71.9434 330.22 71.9434Z" fill="#ECE6E2"/>
<path d="M348.431 70.8642L348.55 72.4539C349.558 71.2193 350.922 70.6006 352.643 70.6006C354.476 70.6006 355.733 71.3247 356.418 72.7702C357.417 71.3247 358.843 70.6006 360.694 70.6006C362.239 70.6006 363.385 71.0501 364.139 71.949C364.894 72.8478 365.271 74.1989 365.271 76.0078V85.0964H361.457V75.9967C361.457 75.1894 361.298 74.5984 360.982 74.2239C360.666 73.8521 360.108 73.6607 359.312 73.6607C358.172 73.6607 357.384 74.2073 356.943 75.2976L356.957 85.0936H353.156V76.0106C353.156 75.1838 352.992 74.5846 352.67 74.2156C352.348 73.8466 351.794 73.6607 351.014 73.6607C349.935 73.6607 349.155 74.1101 348.673 75.0062V85.0936H344.872V70.8587H348.431V70.8642Z" fill="#ECE6E2"/>
<path d="M376.493 85.0992C376.318 84.7579 376.191 84.3307 376.11 83.823C375.189 84.8523 373.994 85.3627 372.518 85.3627C371.122 85.3627 369.968 84.9577 369.053 84.1531C368.134 83.3458 367.677 82.3276 367.677 81.1014C367.677 79.5922 368.237 78.4353 369.352 77.6279C370.47 76.8206 372.088 76.4128 374.202 76.4045H375.952V75.5916C375.952 74.9313 375.783 74.4042 375.447 74.013C375.109 73.6163 374.576 73.4193 373.849 73.4193C373.208 73.4193 372.706 73.5719 372.343 73.8799C371.979 74.1878 371.796 74.6095 371.796 75.1422H367.996C367.996 74.3182 368.251 73.5553 368.758 72.8561C369.266 72.1542 369.987 71.6021 370.917 71.2026C371.846 70.8031 372.889 70.6034 374.049 70.6034C375.802 70.6034 377.195 71.0445 378.224 71.9267C379.256 72.8062 379.77 74.0463 379.77 75.6443V81.8116C379.778 83.1627 379.967 84.1836 380.336 84.8745V85.0992H376.493ZM373.35 82.4525C373.91 82.4525 374.429 82.3276 374.904 82.0807C375.378 81.8283 375.728 81.4953 375.955 81.0736V78.6267H374.535C372.631 78.6267 371.619 79.2842 371.497 80.5992L371.483 80.8212C371.483 81.2956 371.649 81.6868 371.982 81.9919C372.315 82.2999 372.77 82.4525 373.35 82.4525Z" fill="#ECE6E2"/>
<path d="M387.968 79.3897L386.6 80.7574V85.0992H382.797V64.8939H386.6V76.0883L387.338 75.1422L390.981 70.867H395.547L390.404 76.8012L395.997 85.102H391.63L387.968 79.3897Z" fill="#ECE6E2"/>
<path d="M397.431 67.1799C397.431 66.6112 397.62 66.1396 398.003 65.7706C398.383 65.4016 398.904 65.2213 399.562 65.2213C400.211 65.2213 400.727 65.4044 401.115 65.7706C401.501 66.1396 401.695 66.6112 401.695 67.1799C401.695 67.7597 401.498 68.2314 401.11 68.6004C400.719 68.9693 400.203 69.1525 399.564 69.1525C398.924 69.1525 398.41 68.9693 398.016 68.6004C397.625 68.2342 397.431 67.7597 397.431 67.1799ZM401.47 85.0992H397.656V70.8642H401.47V85.0992Z" fill="#ECE6E2"/>
<path d="M408.209 70.8642L408.326 72.5066C409.344 71.236 410.709 70.6006 412.418 70.6006C413.924 70.6006 415.048 71.0418 415.786 71.9268C416.524 72.8146 416.898 74.1379 416.918 75.9024V85.0964H413.114V75.9717C413.114 75.1644 412.939 74.5762 412.587 74.21C412.238 73.8466 411.655 73.6635 410.839 73.6635C409.768 73.6635 408.967 74.124 408.431 75.0368V85.0964H404.63V70.8614H408.209V70.8642Z" fill="#ECE6E2"/>
<path d="M419.354 77.8749C419.354 75.6943 419.875 73.9326 420.913 72.6009C421.953 71.2693 423.351 70.6006 425.116 70.6006C426.678 70.6006 427.893 71.1361 428.761 72.207L428.919 70.8642H432.365V84.6248C432.365 85.8705 432.082 86.9552 431.516 87.8735C430.953 88.7974 430.154 89.4965 429.13 89.9792C428.104 90.4619 426.9 90.7033 425.526 90.7033C424.481 90.7033 423.465 90.4952 422.475 90.0791C421.482 89.6629 420.732 89.1247 420.225 88.4672L421.909 86.1507C422.855 87.2132 424.006 87.7431 425.354 87.7431C426.364 87.7431 427.149 87.474 427.71 86.933C428.27 86.3948 428.55 85.6291 428.55 84.6387V83.873C427.674 84.8662 426.52 85.36 425.088 85.36C423.379 85.36 421.995 84.6914 420.938 83.3542C419.881 82.0169 419.351 80.2414 419.351 78.033L419.354 77.8749ZM423.157 78.1468C423.157 79.4396 423.415 80.4578 423.931 81.193C424.45 81.9309 425.16 82.2944 426.062 82.2944C427.219 82.2944 428.048 81.8588 428.55 80.9877V74.973C428.04 74.1018 427.222 73.6635 426.09 73.6635C425.18 73.6635 424.461 74.038 423.94 74.7871C423.418 75.5389 423.157 76.657 423.157 78.1468Z" fill="#ECE6E2"/>
<path d="M441.681 77.7695C441.681 76.4017 441.948 75.1699 442.477 74.0741C443.007 72.9782 443.756 72.1237 444.725 71.5134C445.693 70.903 446.792 70.6006 448.021 70.6006C449.915 70.6006 451.447 71.2665 452.626 72.5926C453.799 73.9215 454.388 75.6832 454.388 77.8749V78.205C454.388 79.5839 454.121 80.8212 453.591 81.9226C453.061 83.024 452.315 83.8729 451.347 84.4666C450.384 85.0631 449.283 85.36 448.045 85.36C446.159 85.36 444.628 84.6941 443.448 83.368C442.267 82.0391 441.678 80.2774 441.678 78.0857V77.7695H441.681ZM443.26 78.205C443.26 79.9057 443.701 81.3012 444.583 82.3942C445.463 83.4845 446.619 84.0311 448.048 84.0311C449.469 84.0311 450.62 83.4845 451.502 82.3942C452.382 81.3012 452.823 79.8613 452.823 78.0719V77.7695C452.823 76.6847 452.623 75.6887 452.218 74.7843C451.816 73.8799 451.25 73.1808 450.523 72.6869C449.793 72.1931 448.961 71.9434 448.023 71.9434C446.62 71.9434 445.476 72.4927 444.589 73.5941C443.704 74.6955 443.263 76.1354 443.263 77.9165L443.26 78.205Z" fill="#ECE6E2"/>
<path d="M458.258 85.0992V72.1543H455.905V70.8642H458.258V69.1386C458.258 67.6849 458.63 66.564 459.37 65.7845C460.111 65.0049 461.146 64.6137 462.466 64.6137C463.066 64.6137 463.62 64.6886 464.139 64.8357L464.02 66.1396C463.582 66.0342 463.104 65.9814 462.588 65.9814C461.72 65.9814 461.043 66.2533 460.563 66.7943C460.08 67.3353 459.839 68.1038 459.839 69.0942V70.8615H463.232V72.1515H459.839V85.0964H458.258V85.0992Z" fill="#ECE6E2"/>
<path d="M302.944 112.49C302.785 112.04 302.686 111.38 302.641 110.503C302.089 111.222 301.384 111.777 300.53 112.163C299.675 112.554 298.768 112.751 297.814 112.751C296.446 112.751 295.339 112.368 294.493 111.608C293.647 110.842 293.222 109.876 293.222 108.714C293.222 107.327 293.799 106.231 294.951 105.424C296.105 104.616 297.711 104.214 299.773 104.214H302.627V102.597C302.627 101.579 302.314 100.78 301.687 100.194C301.06 99.6116 300.147 99.3175 298.946 99.3175C297.85 99.3175 296.943 99.6005 296.221 100.158C295.503 100.719 295.142 101.398 295.142 102.186L293.564 102.172C293.564 101.038 294.091 100.058 295.142 99.2315C296.194 98.4047 297.489 97.9886 299.023 97.9886C300.61 97.9886 301.862 98.3853 302.78 99.1788C303.695 99.9722 304.167 101.082 304.195 102.502V109.238C304.195 110.612 304.339 111.644 304.628 112.329V112.487L302.944 112.49ZM298 111.358C299.051 111.358 299.994 111.106 300.821 110.598C301.651 110.087 302.253 109.408 302.63 108.559V105.427H299.814C298.244 105.446 297.018 105.732 296.13 106.287C295.245 106.847 294.801 107.613 294.801 108.584C294.801 109.383 295.098 110.043 295.689 110.57C296.282 111.094 297.051 111.358 298 111.358Z" fill="#ECE6E2"/>
<path d="M323.468 108.875C323.468 108.09 323.155 107.463 322.528 106.991C321.901 106.517 320.954 106.151 319.692 105.881C318.43 105.612 317.45 105.307 316.751 104.958C316.055 104.614 315.536 104.192 315.198 103.69C314.859 103.193 314.693 102.586 314.693 101.875C314.693 100.752 315.162 99.8224 316.099 99.09C317.037 98.3576 318.238 97.9886 319.703 97.9886C321.29 97.9886 322.564 98.3798 323.526 99.1649C324.486 99.95 324.966 100.979 324.966 102.242H323.388C323.388 101.404 323.038 100.716 322.342 100.161C321.642 99.6116 320.763 99.3341 319.703 99.3341C318.668 99.3341 317.839 99.5644 317.212 100.022C316.585 100.483 316.271 101.085 316.271 101.82C316.271 102.527 316.532 103.077 317.054 103.471C317.575 103.859 318.527 104.217 319.909 104.542C321.29 104.866 322.325 105.21 323.013 105.579C323.701 105.948 324.211 106.392 324.547 106.908C324.88 107.424 325.047 108.051 325.047 108.789C325.047 109.99 324.561 110.95 323.593 111.669C322.625 112.39 321.359 112.751 319.798 112.751C318.141 112.751 316.796 112.348 315.767 111.544C314.734 110.739 314.221 109.727 314.221 108.5H315.8C315.861 109.419 316.249 110.137 316.962 110.648C317.678 111.161 318.621 111.419 319.798 111.419C320.893 111.419 321.778 111.18 322.455 110.698C323.13 110.218 323.468 109.61 323.468 108.875Z" fill="#ECE6E2"/>
<path d="M329.965 98.255L330.018 100.572C330.545 99.7142 331.203 99.0706 331.991 98.6378C332.781 98.2078 333.655 97.9914 334.621 97.9914C336.865 97.9914 338.291 98.9152 338.896 100.757C339.404 99.8724 340.083 99.1871 340.935 98.7099C341.787 98.2328 342.724 97.9914 343.751 97.9914C346.803 97.9914 348.359 99.6615 348.42 102.991V112.49H346.841V103.11C346.833 101.837 346.558 100.896 346.017 100.283C345.479 99.6671 344.6 99.3591 343.379 99.3591C342.247 99.3786 341.293 99.742 340.51 100.461C339.731 101.174 339.295 102.045 339.209 103.071V112.49H337.631V102.991C337.622 101.77 337.334 100.863 336.771 100.264C336.205 99.6615 335.334 99.3591 334.16 99.3591C333.17 99.3591 332.318 99.6421 331.608 100.211C330.898 100.774 330.37 101.612 330.029 102.727V112.49H328.451V98.2522H329.965V98.255Z" fill="#ECE6E2"/>
<path d="M361.312 112.49C361.154 112.04 361.054 111.38 361.01 110.503C360.458 111.222 359.753 111.777 358.899 112.163C358.044 112.554 357.137 112.751 356.183 112.751C354.815 112.751 353.708 112.368 352.862 111.608C352.016 110.842 351.591 109.876 351.591 108.714C351.591 107.327 352.168 106.231 353.319 105.424C354.474 104.616 356.08 104.214 358.141 104.214H360.996V102.597C360.996 101.579 360.682 100.78 360.055 100.194C359.428 99.6116 358.516 99.3175 357.314 99.3175C356.219 99.3175 355.311 99.6005 354.59 100.158C353.872 100.719 353.511 101.398 353.511 102.186L351.932 102.172C351.932 101.038 352.459 100.058 353.511 99.2315C354.562 98.4047 355.858 97.9886 357.392 97.9886C358.979 97.9886 360.23 98.3853 361.149 99.1788C362.064 99.9722 362.536 101.082 362.563 102.502V109.238C362.563 110.612 362.708 111.644 362.996 112.329V112.487L361.312 112.49ZM356.366 111.358C357.417 111.358 358.36 111.106 359.187 110.598C360.017 110.087 360.619 109.408 360.996 108.559V105.427H358.18C356.61 105.446 355.384 105.732 354.496 106.287C353.611 106.847 353.167 107.613 353.167 108.584C353.167 109.383 353.464 110.043 354.055 110.57C354.648 111.094 355.417 111.358 356.366 111.358Z" fill="#ECE6E2"/>
<path d="M373.2 99.5977C372.867 99.5367 372.512 99.5062 372.135 99.5062C371.153 99.5062 370.32 99.7781 369.641 100.325C368.961 100.874 368.478 101.67 368.187 102.716V112.49H366.622V98.2522H368.162L368.187 100.516C369.019 98.832 370.357 97.9914 372.199 97.9914C372.637 97.9914 372.984 98.0497 373.239 98.1634L373.2 99.5977Z" fill="#ECE6E2"/>
<path d="M379.051 94.6151V98.2549H381.998V99.5478H379.051V109.044C379.051 109.835 379.193 110.423 379.478 110.809C379.764 111.192 380.239 111.389 380.904 111.389C381.168 111.389 381.592 111.344 382.181 111.255L382.244 112.532C381.834 112.679 381.271 112.756 380.56 112.756C379.481 112.756 378.696 112.44 378.205 111.813C377.714 111.186 377.467 110.262 377.467 109.044V99.5478H374.848V98.2549H377.467V94.6151H379.051Z" fill="#ECE6E2"/>
<path d="M390.071 112.753C388.861 112.753 387.768 112.451 386.789 111.86C385.809 111.261 385.049 110.429 384.508 109.369C383.962 108.301 383.693 107.105 383.693 105.782V105.218C383.693 103.851 383.959 102.616 384.489 101.52C385.019 100.424 385.757 99.5644 386.703 98.9374C387.649 98.3104 388.675 97.9941 389.782 97.9941C391.511 97.9941 392.881 98.5878 393.894 99.7642C394.909 100.946 395.411 102.558 395.411 104.6V105.479H385.255V105.782C385.255 107.399 385.718 108.742 386.644 109.815C387.568 110.892 388.734 111.427 390.137 111.427C390.978 111.427 391.724 111.275 392.368 110.967C393.014 110.662 393.597 110.168 394.124 109.494L395.112 110.245C393.952 111.916 392.274 112.753 390.071 112.753ZM389.779 99.3341C388.595 99.3341 387.599 99.7697 386.786 100.635C385.976 101.506 385.482 102.669 385.304 104.136H393.844V103.964C393.799 102.597 393.408 101.481 392.673 100.621C391.938 99.7669 390.975 99.3341 389.779 99.3341Z" fill="#ECE6E2"/>
<path d="M405.083 99.5977C404.747 99.5367 404.395 99.5062 404.014 99.5062C403.035 99.5062 402.2 99.7781 401.523 100.325C400.843 100.874 400.358 101.67 400.069 102.716V112.49H398.505V98.2522H400.042L400.067 100.516C400.902 98.832 402.239 97.9914 404.081 97.9914C404.519 97.9914 404.866 98.0497 405.119 98.1634L405.083 99.5977Z" fill="#ECE6E2"/>
<path d="M419.379 111.425C420.477 111.425 421.395 111.114 422.133 110.495C422.874 109.879 423.276 109.08 423.34 108.093H424.852C424.808 108.964 424.536 109.752 424.037 110.47C423.537 111.183 422.871 111.744 422.045 112.146C421.215 112.554 420.327 112.753 419.381 112.753C417.514 112.753 416.033 112.101 414.942 110.806C413.849 109.505 413.303 107.762 413.303 105.568V105.094C413.303 103.693 413.55 102.452 414.041 101.37C414.535 100.294 415.237 99.4562 416.152 98.8736C417.068 98.2854 418.138 97.9886 419.37 97.9886C420.929 97.9886 422.217 98.4519 423.232 99.3841C424.245 100.313 424.786 101.537 424.855 103.054H423.343C423.271 101.939 422.871 101.04 422.136 100.355C421.404 99.6698 420.48 99.3314 419.37 99.3314C417.95 99.3314 416.846 99.8418 416.06 100.871C415.275 101.895 414.884 103.335 414.884 105.185V105.646C414.884 107.46 415.275 108.875 416.06 109.893C416.846 110.917 417.953 111.425 419.379 111.425Z" fill="#ECE6E2"/>
<path d="M427.796 94.1462C427.796 93.8493 427.893 93.5996 428.084 93.3943C428.279 93.189 428.542 93.0892 428.875 93.0892C429.211 93.0892 429.474 93.189 429.671 93.3943C429.871 93.5996 429.968 93.8493 429.968 94.1462C429.968 94.443 429.871 94.6927 429.671 94.8925C429.474 95.0922 429.211 95.1949 428.875 95.1949C428.542 95.1949 428.279 95.095 428.084 94.8925C427.896 94.6899 427.796 94.443 427.796 94.1462ZM429.652 112.49H428.073V98.2522H429.652V112.49Z" fill="#ECE6E2"/>
<path d="M436.402 94.6151V98.2549H439.348V99.5478H436.402V109.044C436.402 109.835 436.543 110.423 436.829 110.809C437.115 111.192 437.589 111.389 438.255 111.389C438.519 111.389 438.943 111.344 439.531 111.255L439.595 112.532C439.184 112.679 438.621 112.756 437.911 112.756C436.832 112.756 436.047 112.44 435.558 111.813C435.065 111.186 434.82 110.262 434.82 109.044V99.5478H432.201V98.2549H434.82V94.6151H436.402Z" fill="#ECE6E2"/>
<path d="M447.61 110.229L451.766 98.2549H453.461L447.382 114.912L447.066 115.65C446.287 117.375 445.08 118.244 443.448 118.244C443.071 118.244 442.666 118.183 442.239 118.058L442.225 116.757L443.041 116.834C443.812 116.834 444.439 116.643 444.916 116.266C445.393 115.883 445.798 115.228 446.134 114.299L446.83 112.376L441.462 98.2605H443.188L447.61 110.229Z" fill="#ECE6E2"/>
<path d="M261.201 58.5823H260.377V120H261.201V58.5823Z" fill="#ECE6E2"/>
</g>
<defs>
<clipPath id="clip0_8_2289">
<rect width="464.139" height="120" fill="white"/>
</clipPath>
</defs>
</svg>
