<svg width="80" height="80" viewBox="0 0 80 80" fill="none" xmlns="http://www.w3.org/2000/svg">
<g clip-path="url(#clip0_44_1282)">
<path d="M76.9281 44.2405L45.8809 13.176C44.2414 11.5365 42.0496 10.6218 39.737 10.6218C39.5472 10.6218 39.3574 10.6218 39.1675 10.6391L16.7148 12.1233C14.2814 12.2786 12.314 14.246 12.1587 16.6794L11.6237 24.6526C10.4847 23.9968 9.39741 23.1684 8.4137 22.1847C6.01484 19.7859 4.53064 16.8002 4.22 13.7628C3.92661 10.8807 4.755 8.30926 6.54984 6.51443C10.3639 2.7004 17.3879 3.54604 22.2374 8.37829C23.0485 9.18942 24.3601 9.18942 25.1713 8.37829C25.9824 7.56717 25.9824 6.25556 25.1713 5.44443C18.6822 -0.99282 9.01774 -1.82121 3.59871 3.59782C0.906456 6.29007 -0.336122 10.0351 0.0780705 14.1943C0.475005 18.1809 2.39065 22.0639 5.46258 25.1358C7.18838 26.8617 9.19032 28.225 11.3131 29.157L10.6572 39.1494C10.4847 41.6518 11.4166 44.1024 13.1942 45.88L44.2587 76.9445C46.2261 78.9119 48.832 79.9819 51.6106 79.9819C54.3891 79.9819 56.9951 78.8946 58.9625 76.9445L76.9626 58.9443C78.9301 56.9769 80.0001 54.371 80.0001 51.5924C79.9828 48.7966 78.8955 46.1907 76.9281 44.2405ZM74.0115 55.9932L55.9941 74.0106C54.8206 75.1842 53.2501 75.84 51.5761 75.84C49.902 75.84 48.3316 75.1842 47.158 74.0106L16.0935 42.9461C15.1616 42.0142 14.6784 40.7371 14.7647 39.4255L15.3687 30.3823C15.7139 30.4341 16.059 30.4858 16.4042 30.5204C16.9219 30.5721 17.4397 30.6066 17.9401 30.6066C21.478 30.6066 24.6363 29.3641 26.9834 27.017C27.7945 26.2058 27.7945 24.8942 26.9834 24.0831C26.1722 23.272 24.8606 23.272 24.0495 24.0831C22.2547 25.8779 19.6832 26.7063 16.8011 26.4129C16.4042 26.3784 16.0245 26.3094 15.6448 26.2404L16.2661 16.9901C16.2834 16.6104 16.594 16.317 16.9737 16.2825L39.4264 14.7983C39.5299 14.7983 39.6335 14.781 39.737 14.781C40.9451 14.781 42.1187 15.2643 42.9643 16.1099L74.0115 47.1571C75.1851 48.3307 75.8409 49.9011 75.8409 51.5752C75.8409 53.2492 75.1851 54.8197 74.0115 55.9932Z" fill="#ECE6E2"/>
</g>
<defs>
<clipPath id="clip0_44_1282">
<rect width="80" height="80" fill="white"/>
</clipPath>
</defs>
</svg>
