<svg width="80" height="80" viewBox="0 0 80 80" fill="none" xmlns="http://www.w3.org/2000/svg">
<path d="M77.9359 20.7021L62.2338 0.787671C61.84 0.291096 61.2578 0 60.6243 0H19.3914C18.7578 0 18.1756 0.291096 17.7818 0.787671L2.07973 20.7021C1.78863 21.0616 1.63452 21.5068 1.63452 21.9692V77.9452C1.63452 79.0753 2.55918 80 3.68932 80H76.3092C77.4393 80 78.364 79.0753 78.364 77.9452V21.9692C78.3811 21.5068 78.227 21.0616 77.9359 20.7021ZM72.3537 20.2568H42.0626V4.10959H59.6311L72.3537 20.2568ZM20.3845 4.10959H37.953V20.2568H7.66192L20.3845 4.10959ZM5.74411 75.8904V24.3664H74.2544V75.8904H5.74411Z" fill="#ECE6E2"/>
<path d="M49.7508 40.9076L35.9837 54.6748L30.2646 48.9556C29.4598 48.1508 28.1584 48.1508 27.3536 48.9556C26.5488 49.7604 26.5488 51.0617 27.3536 51.8665L34.5282 59.0412C34.9221 59.435 35.4529 59.6405 35.9837 59.6405C36.5145 59.6405 37.0282 59.435 37.4392 59.0412L52.6447 43.8357C53.4495 43.0309 53.4495 41.7295 52.6447 40.9247C51.857 40.1028 50.5556 40.1028 49.7508 40.9076Z" fill="#ECE6E2"/>
</svg>
