<svg width="80" height="80" viewBox="0 0 80 80" fill="none" xmlns="http://www.w3.org/2000/svg">
<g clip-path="url(#clip0_44_1415)">
<path d="M56.8368 43.1143H45.9664C42.9913 43.1143 40.572 45.5335 40.572 48.5086V56.8454C40.572 59.8204 42.9913 62.2397 45.9664 62.2397H56.8368C59.8119 62.2397 62.2312 59.8204 62.2312 56.8454V48.5086C62.2312 45.5335 59.8119 43.1143 56.8368 43.1143ZM58.308 56.8454C58.308 57.6627 57.6378 58.3165 56.8368 58.3165H45.9664C45.1491 58.3165 44.4952 57.6463 44.4952 56.8454V48.5086C44.4952 47.6913 45.1654 47.0374 45.9664 47.0374H56.8368C57.6542 47.0374 58.308 47.7076 58.308 48.5086V56.8454Z" fill="#194F59"/>
<path d="M80 27.9608C80 27.6176 79.9183 27.2906 79.7385 26.9964L67.8382 6.07282C67.4949 5.468 66.841 5.07568 66.1381 5.07568H13.8455C13.1426 5.07568 12.4888 5.45165 12.1455 6.07282L0.261545 26.9964C0.0980793 27.2906 0 27.6176 0 27.9608C0 32.6523 2.82795 36.6735 6.86555 38.4553V72.9629C6.86555 74.0417 7.74826 74.9244 8.82714 74.9244H19.6649C19.6812 74.9244 19.6976 74.9244 19.7139 74.9244H34.9162C34.9326 74.9244 34.9489 74.9244 34.9653 74.9244H71.1565C72.2354 74.9244 73.1181 74.0417 73.1181 72.9629V38.7005C73.1181 38.6188 73.1181 38.5534 73.1018 38.488C77.1557 36.7062 80 32.6686 80 27.9608ZM14.9898 9.0152H64.9939L74.2951 25.3781H5.70495L14.9898 9.0152ZM56.935 29.2849C56.3139 32.8158 53.2244 35.4966 49.5137 35.4966C45.803 35.4966 42.7135 32.8158 42.0924 29.2849H56.935ZM37.924 29.2849C37.3028 32.8158 34.2133 35.4966 30.5027 35.4966C26.792 35.4966 23.7025 32.8158 23.065 29.2849H37.924ZM4.05394 29.2849H18.913C18.2918 32.8158 15.1859 35.4966 11.4753 35.4966C7.76461 35.5129 4.67511 32.8158 4.05394 29.2849ZM32.9546 71.0013H21.6755V49.8325C21.6755 48.2959 22.9179 47.0372 24.4708 47.0372H30.1757C31.7123 47.0372 32.971 48.2796 32.971 49.8325V71.0013H32.9546ZM69.1949 71.0013H36.8778V49.8325C36.8778 46.1382 33.87 43.1141 30.1594 43.1141H24.4544C20.7601 43.1141 17.736 46.1218 17.736 49.8325V71.0176H10.7887V39.4198C11.0176 39.4361 11.2464 39.4361 11.4753 39.4361C15.4311 39.4361 18.9293 37.4255 20.989 34.3687C23.0486 37.4255 26.5468 39.4361 30.5027 39.4361C34.4585 39.4361 37.9403 37.4255 40.0163 34.3687C42.076 37.4255 45.5742 39.4361 49.5137 39.4361C53.4696 39.4361 56.9514 37.4255 59.011 34.3687C61.0707 37.4255 64.5689 39.4361 68.5247 39.4361C68.7536 39.4361 68.9661 39.4198 69.1949 39.4198V71.0013ZM68.5247 35.5129C64.8141 35.5129 61.7246 32.8321 61.1034 29.3013H75.9624C75.3249 32.8158 72.2354 35.5129 68.5247 35.5129Z" fill="#194F59"/>
</g>
<defs>
<clipPath id="clip0_44_1415">
<rect width="80" height="80" fill="white"/>
</clipPath>
</defs>
</svg>
